<?xml version="1.0" encoding="utf-8"?>
<!-- Generator: Adobe Illustrator 19.2.0, SVG Export Plug-In . SVG Version: 6.00 Build 0)  -->
<svg version="1.1" xmlns="http://www.w3.org/2000/svg" xmlns:xlink="http://www.w3.org/1999/xlink" x="0px" y="0px"
	 viewBox="0 0 14684 629.3" style="enable-background:new 0 0 14684 629.3;" xml:space="preserve">
<style type="text/css">
	.st0{fill:#EAC78C;}
	.st1{fill:#48170E;}
	.st2{fill:#FF653E;}
	.st3{fill:#482C20;}
	.st4{fill:#9AD3B5;}
	.st5{fill:#83746A;}
	.st6{fill:#19A4A5;}
	.st7{fill:#FE7B65;}
	.st8{fill:#CB5551;}
	.st9{fill:#583C3F;}
	.st10{fill:#7F9A7A;stroke:#005973;stroke-width:4;stroke-miterlimit:10;}
	.st11{fill:#3F643E;}
	.st12{fill:#494A38;}
	.st13{fill:#003F32;}
	.st14{fill:#607D1D;}
	.st15{display:none;}
	.st16{display:inline;fill:#DF600D;}
	.st17{display:inline;fill:#AD9306;}
	.st18{display:inline;fill:#48170E;}
	.st19{display:inline;fill:#FF653E;}
	.st20{display:inline;fill:#BAA483;}
	.st21{display:inline;fill:#0E9385;}
	.st22{display:inline;fill:#E37A2B;}
	.st23{display:inline;fill:#705F53;}
	.st24{display:inline;fill:#E3792C;}
	.st25{display:inline;fill:#83746A;}
	.st26{display:inline;fill:#E9D6B8;}
	.st27{display:inline;fill:#E3792B;}
	.st28{display:inline;fill:#E37A2B;stroke:#FBBB91;stroke-miterlimit:10;}
	.st29{display:inline;fill:#02AC9C;}
	.st30{display:inline;fill:#E0C78F;}
	.st31{display:inline;fill:none;stroke:#231F20;stroke-miterlimit:10;}
	.st32{display:inline;}
	.st33{fill:#BAA483;}
	.st34{fill:#00AC9E;}
	.st35{fill:#A9A288;}
	.st36{clip-path:url(#SVGID_2_);}
	.st37{display:inline;fill:#483F31;}
	.st38{display:inline;fill:#7E986F;}
	.st39{display:inline;fill:#EF454A;}
	.st40{display:inline;fill:#2D5871;}
	.st41{display:inline;fill:#19A4A5;}
	.st42{display:inline;fill:#FFFFFF;}
	.st43{display:inline;fill:#231F20;}
	.st44{display:inline;fill:#583C3F;}
	.st45{display:inline;fill:#753730;}
	.st46{display:inline;fill:#575051;}
	.st47{display:inline;fill:#A67B69;}
	.st48{display:inline;fill:#8E7E79;}
	.st49{display:inline;fill:#310400;}
	.st50{display:inline;fill:#665B53;}
	.st51{display:inline;fill:#67686B;}
	.st52{display:inline;fill:#545456;}
	.st53{display:inline;fill:#003F32;}
	.st54{display:inline;fill:#4A638C;}
	.st55{display:inline;fill:none;stroke:#536D6E;stroke-miterlimit:10;}
	.st56{display:inline;fill:#83A7A7;}
	.st57{display:inline;fill:#F2A417;}
	.st58{display:inline;fill:#6F533A;}
	.st59{display:inline;fill:#F3796E;}
	.st60{display:inline;fill:#EF4961;}
	.st61{display:inline;fill:#EF4132;}
	.st62{fill:#F7934F;}
	.st63{fill:#F26848;}
	.st64{display:inline;fill:#627C61;stroke:#4556A6;stroke-width:4;stroke-miterlimit:10;}
	.st65{display:inline;fill:#941550;stroke:#19A4A5;stroke-width:3;stroke-miterlimit:10;}
	.st66{display:inline;fill:#FDEB00;}
	.st67{display:inline;fill:#EE2648;}
	.st68{display:inline;fill:#656668;}
	.st69{display:inline;fill:#5C5C5F;}
	.st70{display:inline;fill:#BBA981;}
	.st71{display:inline;fill:#AFA790;}
	.st72{display:inline;fill:none;stroke:#DCDDDE;stroke-miterlimit:10;}
	.st73{display:inline;fill:#ADA692;}
	.st74{display:inline;fill:#58585B;}
	.st75{display:inline;fill:#E58670;}
	.st76{display:inline;fill:#C6CDC8;}
	.st77{display:inline;fill:#D87F6E;}
	.st78{display:inline;fill:#7595A0;}
	.st79{display:inline;fill:#9DC3A7;}
	.st80{display:inline;fill:#6E7072;}
	.st81{display:inline;fill:#5E3229;}
	.st82{display:inline;fill:#D55662;}
	.st83{display:inline;fill:none;stroke:#68707A;stroke-miterlimit:10;}
	.st84{display:inline;fill:#6A6D6F;}
	.st85{display:inline;fill:#7F7E81;}
	.st86{display:inline;fill:none;stroke:#68707A;stroke-width:2;stroke-miterlimit:10;}
	.st87{fill:#E58670;}
	.st88{fill:#58585B;}
	.st89{fill:#E6E9EB;}
	.st90{fill:#DADACC;}
	.st91{fill:#E48771;}
	.st92{fill:#9DC3A4;}
	.st93{fill:#FFFFFF;}
	.st94{fill:#7492A1;}
	.st95{display:inline;fill:#1CAEB1;enable-background:new    ;}
	.st96{display:inline;fill:#1CAEB1;}
	.st97{display:inline;fill:#F74447;enable-background:new    ;}
	.st98{display:inline;fill:#903A1E;}
</style>
<g id="background">
	<rect x="-8.7" class="st0" width="14684" height="629.3"/>
	<rect x="4173.4" y="283.2" class="st1" width="77.5" height="227.2"/>
	<path class="st2" d="M4185,420.3L4185,420.3c-2.7,0-4.9-2.2-4.9-4.9l0,0c0-2.7,2.2-4.9,4.9-4.9l0,0c2.7,0,4.9,2.2,4.9,4.9l0,0
		C4189.9,418.1,4187.7,420.3,4185,420.3z"/>
	<path class="st2" d="M4185,420.3L4185,420.3c-2.7,0-4.9-2.2-4.9-4.9l0,0c0-2.7,2.2-4.9,4.9-4.9l0,0c2.7,0,4.9,2.2,4.9,4.9l0,0
		C4189.9,418.1,4187.7,420.3,4185,420.3z"/>
	<rect x="5349.5" y="283.2" class="st1" width="77.5" height="227.2"/>
	<path class="st2" d="M5361,420.3L5361,420.3c-2.7,0-4.9-2.2-4.9-4.9l0,0c0-2.7,2.2-4.9,4.9-4.9l0,0c2.7,0,4.9,2.2,4.9,4.9l0,0
		C5365.9,418.1,5363.7,420.3,5361,420.3z"/>
	<path class="st2" d="M5361,420.3L5361,420.3c-2.7,0-4.9-2.2-4.9-4.9l0,0c0-2.7,2.2-4.9,4.9-4.9l0,0c2.7,0,4.9,2.2,4.9,4.9l0,0
		C5365.9,418.1,5363.7,420.3,5361,420.3z"/>
	<rect x="3336" y="255.4" class="st1" width="98.6" height="255"/>
	<rect x="3379.7" y="255.4" class="st3" width="55" height="255"/>
	<rect x="3345.7" y="285.2" class="st4" width="71.4" height="202.1"/>
	<ellipse class="st3" cx="3371.3" cy="423.4" rx="1.7" ry="8.3"/>
	<ellipse class="st3" cx="3392.9" cy="423.4" rx="1.7" ry="8.3"/>
	<rect x="3377" y="285.2" class="st5" width="8.3" height="202.1"/>
	<rect x="3909.8" y="295.6" class="st5" width="153.2" height="5.8"/>
	<rect x="3904.6" y="420.3" class="st5" width="168.9" height="5.8"/>
	<rect x="3909.8" y="309.5" class="st6" width="153.2" height="103.4"/>
	<rect x="3944" y="309.5" class="st0" width="4" height="105"/>
	<rect x="3909.8" y="342.2" class="st0" width="162.5" height="4"/>
	<rect x="3909.8" y="378.5" class="st0" width="162.5" height="4"/>
	<rect x="3989" y="309.5" class="st0" width="4" height="105"/>
	<path class="st7" d="M3925,283.2h30.6c0,0-0.5,217.2,10.5,227.2H3901C3901,510.4,3935,380.9,3925,283.2z"/>
	<path class="st8" d="M3938.3,301.7c0,0-0.7,193.9-18.7,208.6"/>
	<path class="st8" d="M3944,380.4c0,0-4.3,116.6,4,127.3"/>
	<rect x="6750" y="289.6" class="st9" width="80" height="218.2"/>
	<path class="st2" d="M6765.9,422.1L6765.9,422.1c-2.7,0-4.9-2.2-4.9-4.9l0,0c0-2.7,2.2-4.9,4.9-4.9l0,0c2.7,0,4.9,2.2,4.9,4.9l0,0
		C6770.8,419.9,6768.6,422.1,6765.9,422.1z"/>
	<rect x="8246.9" y="351.1" class="st10" width="92.3" height="48.3"/>
	<circle class="st11" cx="8272.1" cy="362.7" r="5"/>
	<circle class="st12" cx="8260.8" cy="377.8" r="5"/>
	<circle class="st11" cx="8281.2" cy="376" r="5"/>
	<circle class="st11" cx="8270.6" cy="391.6" r="5"/>
	<circle class="st13" cx="8293.1" cy="363.2" r="5"/>
	<circle class="st11" cx="8294.6" cy="386.6" r="5"/>
	<circle class="st11" cx="8313.1" cy="368.1" r="5"/>
	<circle class="st14" cx="8321" cy="384.4" r="5"/>
	<circle class="st11" cx="8330.9" cy="367.9" r="5"/>
	<rect x="8442.1" y="289.6" class="st9" width="80" height="218.2"/>
	<path class="st2" d="M8457.9,422.1L8457.9,422.1c-2.7,0-4.9-2.2-4.9-4.9l0,0c0-2.7,2.2-4.9,4.9-4.9l0,0c2.7,0,4.9,2.2,4.9,4.9l0,0
		C8462.8,419.9,8460.6,422.1,8457.9,422.1z"/>
</g>
<g id="objects" class="st15">
	<polygon class="st16" points="1539.5,-417.8 1214,-267.8 1539.5,-342.8 1812.4,-267.8 	"/>
	<path class="st17" d="M4335.1,1686.9c0,0-45.1,2.7-43,41.1c0,0-2,14.5,21.4,16.6h1151.9c0,0,38.5-42.2-12.8-57.7H4335.1
		L4335.1,1686.9z"/>
	<rect x="3856.1" y="-435.8" class="st18" width="46.5" height="93"/>
	<circle class="st19" cx="3864.8" cy="-389.3" r="4.4"/>
	<path class="st20" d="M3854.4,470.7h-189.9c-6.6,0-12-5.4-12-12v-8.4c0-6.6,5.4-12,12-12h189.9c6.6,0,12,5.4,12,12v8.4
		C3866.4,465.3,3861,470.7,3854.4,470.7z"/>
	<path class="st21" d="M3741.1,357.6H3662c-1.6,0-2.9-1.3-2.9-2.9l0,0c0-1.6,1.3-2.9,2.9-2.9h79.2c1.6,0,2.9,1.3,2.9,2.9l0,0
		C3744.1,356.3,3742.8,357.6,3741.1,357.6z"/>
	<path class="st21" d="M3682.2,395.1H3603c-1.6,0-2.9-1.3-2.9-2.9l0,0c0-1.6,1.3-2.9,2.9-2.9h79.2c1.6,0,2.9,1.3,2.9,2.9l0,0
		C3685.2,393.8,3683.9,395.1,3682.2,395.1z"/>
	<path class="st21" d="M3842,312.4h-79.2c-1.6,0-2.9-1.3-2.9-2.9l0,0c0-1.6,1.3-2.9,2.9-2.9h79.2c1.6,0,2.9,1.3,2.9,2.9l0,0
		C3844.9,311.1,3843.6,312.4,3842,312.4z"/>
	<rect x="3666" y="328.6" class="st22" width="13.1" height="23.1"/>
	<rect x="3724.6" y="328.6" class="st22" width="13.1" height="23.1"/>
	<rect x="3683.1" y="328.6" class="st22" width="6.6" height="23.1"/>
	<rect x="3694.2" y="328.6" class="st23" width="6.6" height="23.1"/>
	
		<rect x="3706.7" y="315.7" transform="matrix(0.8917 -0.4527 0.4527 0.8917 250.7639 1716.0206)" class="st23" width="8.2" height="36.8"/>
	<path class="st24" d="M3601.3,374.7h17.3c0,0,2.7,1.4,0,7.4c0,0-2,6.8-5.3,7.1h-6.7C3606.6,389.2,3598.6,383.9,3601.3,374.7z"/>
	<ellipse class="st25" cx="3604.3" cy="366.2" rx="3" ry="8.5"/>
	<ellipse class="st25" cx="3614" cy="366.2" rx="3" ry="8.5"/>
	<ellipse class="st25" cx="3609.2" cy="360.4" rx="1.9" ry="13.9"/>
	<path class="st26" d="M3856.2,458.7h-193.5c-5.6,0-10.2-4.6-10.2-10.2l0,0c0-5.6,4.6-10.2,10.2-10.2h193.6
		c5.6,0,10.2,4.6,10.2,10.2l0,0C3866.4,454.1,3861.8,458.7,3856.2,458.7z"/>
	<path class="st27" d="M3481.3,503.9H3461c-6.6,0-12-5.4-12-12v-20.3c0-6.6,5.4-12,12-12h20.3c6.6,0,12,5.4,12,12v20.3
		C3493.3,498.5,3487.9,503.9,3481.3,503.9z"/>
	<rect x="3455.5" y="472.7" class="st28" width="32" height="8.8"/>
	<rect x="3455.5" y="485.6" class="st28" width="32" height="8.8"/>
	<path class="st21" d="M3458.6,511.9L3458.6,511.9c-1,0-1.8-0.8-1.8-1.8v-4.5c0-1,0.8-1.8,1.8-1.8l0,0c1,0,1.8,0.8,1.8,1.8v4.5
		C3460.4,511.1,3459.6,511.9,3458.6,511.9z"/>
	<path class="st21" d="M3487.5,511.9L3487.5,511.9c-1,0-1.8-0.8-1.8-1.8v-4.5c0-1,0.8-1.8,1.8-1.8l0,0c1,0,1.8,0.8,1.8,1.8v4.5
		C3489.3,511.1,3488.5,511.9,3487.5,511.9z"/>
	<circle class="st26" cx="3471.5" cy="477.5" r="1.1"/>
	<circle class="st26" cx="3471.5" cy="490.1" r="1.1"/>
	<path class="st29" d="M3459.5,448.9c0,0,2.2-2.6,6.6-2l16.1-0.1c0,0,2.2-0.1,3.7,2.1l4,9.1c0,0,1.1,3.3-1.1,3.5h-31.3
		c0,0-3.5-1-2.2-3.5L3459.5,448.9z"/>
	<path class="st30" d="M3466.6,449h11.9c0,0,3.1,1.1,4.2,4.6l1.3,3.7c0,0-0.4,1.5-3.1,2h-17.4c0,0-3.5-0.9-1.8-4.2
		C3461.7,455.1,3463.7,450.1,3466.6,449z"/>
	<line class="st31" x1="3472.6" y1="450.3" x2="3472.6" y2="452.3"/>
	<line class="st31" x1="3472.6" y1="456.4" x2="3472.6" y2="458.3"/>
	<line class="st31" x1="3478.6" y1="454.2" x2="3480.6" y2="454.2"/>
	<line class="st31" x1="3463.9" y1="454.2" x2="3465.9" y2="454.2"/>
	<polyline class="st31" points="3469,451.3 3471.5,454.2 3476.3,454.2 	"/>
	<g class="st32">
		<path class="st33" d="M3552.5,391.4h20.7c0,0,2.5,35.1,9.9,42.4h-39.9C3543.2,433.8,3553,411.6,3552.5,391.4z"/>
		<path class="st34" d="M3565.6,494.9h-1.2v-61h-2.7v61h-1c0,0-4.4,11.1-2.7,15h10.6C3568.6,509.9,3568.3,499.3,3565.6,494.9z"/>
		<path class="st35" d="M3571.5,464.5v-30.7h-1.7v30.7c-0.5,0.7-0.9,2-0.9,3.4c0,2.2,0.8,3.9,1.7,3.9c1,0,1.7-1.8,1.7-3.9
			C3572.4,466.5,3572,465.2,3571.5,464.5z"/>
	</g>
	<g class="st32">
		<g>
			<g>
				<defs>
					<rect id="SVGID_1_" x="3052.9" y="-657.9" width="476.9" height="315.1"/>
				</defs>
				<clipPath id="SVGID_2_">
					<use xlink:href="#SVGID_1_"  style="overflow:visible;"/>
				</clipPath>
				<g transform="matrix(1 0 0 1 0 -3.051758e-05)" class="st36">
					
						<image style="overflow:visible;enable-background:new    ;" width="1301" height="860" xlink:href="2B6193CA9EDE5EC.jpeg"  transform="matrix(0.3666 0 0 0.3665 3052.863 -657.9491)">
					</image>
				</g>
			</g>
		</g>
	</g>
	<path class="st29" d="M3695.8,443.9h-33.9c-3.5,0-6.3-2.9-6.3-6.3l0,0c0-3.5,2.9-6.3,6.3-6.3h33.9c3.5,0,6.3,2.9,6.3,6.3l0,0
		C3702.2,441.1,3699.3,443.9,3695.8,443.9z"/>
	<rect x="3652.8" y="466.3" class="st37" width="213.3" height="25.9"/>
	<rect x="3634.2" y="427.9" class="st37" width="18.7" height="83.5"/>
	<rect x="3863.6" y="427.9" class="st37" width="5" height="83.5"/>
	<path class="st38" d="M3795.6,306.6h-11.9c-5.9,0-10.7-4.8-10.7-10.7l0,0c0-5.9,4.8-10.7,10.7-10.7h11.9c5.9,0,10.7,4.8,10.7,10.7
		l0,0C3806.3,301.8,3801.5,306.6,3795.6,306.6z"/>
	<ellipse class="st25" cx="3782.9" cy="280.6" rx="2.7" ry="5.9"/>
	<ellipse class="st25" cx="3789.5" cy="280.6" rx="2.7" ry="5.9"/>
	<ellipse class="st25" cx="3796.4" cy="280.6" rx="2.7" ry="5.9"/>
	
		<image style="display:inline;overflow:visible;enable-background:new    ;" width="600" height="300" xlink:href="2B6193CA9EDE5EC.jpeg"  transform="matrix(1 0 0 1 3342.6589 796.3944)">
	</image>
	
		<image style="display:inline;overflow:visible;enable-background:new    ;" width="1300" height="1011" xlink:href="2B6193CA9EDE5EC.jpg"  transform="matrix(0.72 0 0 0.72 3850.1414 -765.6035)">
	</image>
	
		<image style="display:inline;overflow:visible;enable-background:new    ;" width="350" height="280" xlink:href="2B6193CA9EDE5F4.jpeg"  transform="matrix(1.9161 0 0 1.9161 5200.8906 819.5804)">
	</image>
	
		<image style="display:inline;overflow:visible;enable-background:new    ;" width="350" height="262" xlink:href="2B6193CA9EDE5F4.jpeg"  transform="matrix(2.3294 0 0 2.3294 4341 796.3944)">
	</image>
	
		<image style="display:inline;overflow:visible;enable-background:new    ;" width="1300" height="975" xlink:href="2B6193CA9EDE5F4.jpeg"  transform="matrix(0.3064 0 0 0.3064 3942.6589 796.3944)">
	</image>
	
		<image style="display:inline;overflow:visible;enable-background:new    ;" width="414" height="415" xlink:href="2B6193CA9EDE5F4.jpg"  transform="matrix(2.0528 0 0 2.0528 5569.4702 -1083.8595)">
	</image>
	
		<image style="display:inline;overflow:visible;enable-background:new    ;" width="195" height="160" xlink:href="2B6193CA9EDE5FC.jpg"  transform="matrix(2.0494 0 0 2.0494 2840.3599 819.5804)">
	</image>
	
		<image style="display:inline;overflow:visible;enable-background:new    ;" width="1300" height="1390" xlink:href="2B6193CA9EDE5FF.jpg"  transform="matrix(0.36 0 0 0.36 2579.6511 1603.7997)">
	</image>
	
		<image style="display:inline;overflow:visible;enable-background:new    ;" width="380" height="380" xlink:href="6451A5C48F623B7B.jpg"  transform="matrix(1.1778 0 0 1.1778 2792.4365 1152.2617)">
	</image>
	
		<image style="display:inline;overflow:visible;enable-background:new    ;" width="1300" height="859" xlink:href="6451A5C48F623B79.jpg"  transform="matrix(0.72 0 0 0.72 1879.2554 974.8231)">
	</image>
	
		<image style="display:inline;overflow:visible;enable-background:new    ;" width="450" height="358" xlink:href="6451A5C48F623B7F.jpeg"  transform="matrix(1.2905 0 0 1.2905 3353.1516 1096.3944)">
	</image>
	<path class="st39" d="M7500.2,498.1h-15c-6.6,0-12-5.4-12-12v-36.9c0-6.6,5.4-12,12-12h15c6.6,0,12,5.4,12,12v36.9
		C7512.2,492.7,7506.8,498.1,7500.2,498.1z"/>
	<path class="st25" d="M7501.4,456H7484c-2.8,0-5.1-2.3-5.1-5.1l0,0c0-2.8,2.3-5.1,5.1-5.1h17.3c2.8,0,5.1,2.3,5.1,5.1l0,0
		C7506.5,453.7,7504.2,456,7501.4,456z"/>
	<path class="st25" d="M7501.4,472.8H7484c-2.8,0-5.1-2.3-5.1-5.1l0,0c0-2.8,2.3-5.1,5.1-5.1h17.3c2.8,0,5.1,2.3,5.1,5.1l0,0
		C7506.5,470.5,7504.2,472.8,7501.4,472.8z"/>
	<path class="st25" d="M7501.4,488.1H7484c-2.8,0-5.1-2.3-5.1-5.1l0,0c0-2.8,2.3-5.1,5.1-5.1h17.3c2.8,0,5.1,2.3,5.1,5.1l0,0
		C7506.5,485.8,7504.2,488.1,7501.4,488.1z"/>
	<rect x="7592.3" y="414.1" class="st40" width="96.1" height="52.8"/>
	<rect x="7595.1" y="417.2" class="st41" width="90.4" height="46.6"/>
	<polygon class="st42" points="7668.4,417.2 7679.8,417.2 7643.2,463.9 7633.2,463.9 	"/>
	<polygon class="st42" points="7653.6,417.2 7659.3,417.2 7627,463.9 7620.8,463.9 	"/>
	<rect x="7616.3" y="466.7" class="st43" width="47.6" height="3.4"/>
	<rect x="7545.4" y="469.8" class="st44" width="191.7" height="41.5"/>
	<rect x="7577.5" y="483.5" class="st25" width="127.5" height="20.2"/>
	<circle class="st45" cx="7602.5" cy="493.6" r="3.3"/>
	<circle class="st45" cx="7684.3" cy="493.6" r="3.3"/>
	<path class="st18" d="M7569.8,464.9h-4.1c-6.6,0-12-5.4-12-12v-19.1c0-6.6,5.4-12,12-12h4.1c6.6,0,12,5.4,12,12v19.1
		C7581.8,459.5,7576.4,464.9,7569.8,464.9z"/>
	<path class="st46" d="M7572.5,469.8h-10.6c-1.3,0-2.4-1.1-2.4-2.4l0,0c0-1.3,1.1-2.4,2.4-2.4h10.6c1.3,0,2.4,1.1,2.4,2.4l0,0
		C7574.9,468.7,7573.8,469.8,7572.5,469.8z"/>
	<path class="st18" d="M7714.9,465.2h-4.1c-6.6,0-12-5.4-12-12v-19.1c0-6.6,5.4-12,12-12h4.1c6.6,0,12,5.4,12,12v19.1
		C7726.9,459.8,7721.5,465.2,7714.9,465.2z"/>
	<path class="st46" d="M7717.6,470.1H7707c-1.3,0-2.4-1.1-2.4-2.4l0,0c0-1.3,1.1-2.4,2.4-2.4h10.6c1.3,0,2.4,1.1,2.4,2.4l0,0
		C7720,469,7718.9,470.1,7717.6,470.1z"/>
	<path class="st47" d="M7974.8,479.4h-172c-6.6,0-12-5.4-12-12v-33.3c0-6.6,5.4-12,12-12h172c6.6,0,12,5.4,12,12v33.3
		C7986.8,474,7981.4,479.4,7974.8,479.4z"/>
	<path class="st48" d="M7989.7,494.2H7781c-4.1,0-7.4-3.3-7.4-7.4l0,0c0-4.1,3.3-7.4,7.4-7.4h208.7c4.1,0,7.4,3.3,7.4,7.4l0,0
		C7997.1,490.9,7993.7,494.2,7989.7,494.2z"/>
	<path class="st49" d="M7783.8,493.3L7783.8,493.3c-5.6,0-10.2-4.6-10.2-10.2v-25.9c0-5.6,4.6-10.2,10.2-10.2l0,0
		c5.6,0,10.2,4.6,10.2,10.2V483C7794,488.7,7789.4,493.3,7783.8,493.3z"/>
	<path class="st50" d="M7987.7,512.1H7783c-5.2,0-9.4-4.2-9.4-9.4l0,0c0-5.2,4.2-9.4,9.4-9.4h204.6c5.2,0,9.4,4.2,9.4,9.4l0,0
		C7997.1,507.9,7992.8,512.1,7987.7,512.1z"/>
	<circle class="st49" cx="7822.3" cy="447" r="3.8"/>
	<circle class="st49" cx="7868.3" cy="447" r="3.8"/>
	<circle class="st49" cx="7914.4" cy="447" r="3.8"/>
	<circle class="st49" cx="7954" cy="447" r="3.8"/>
	<path class="st51" d="M7835.3,493.6H7796c-5.6,0-10.2-4.6-10.2-10.2l0,0c0-5.6,4.6-10.2,10.2-10.2h39.3c5.6,0,10.2,4.6,10.2,10.2
		l0,0C7845.5,489,7840.9,493.6,7835.3,493.6z"/>
	<path class="st51" d="M7908.2,493.6H7869c-5.6,0-10.2-4.6-10.2-10.2l0,0c0-5.6,4.6-10.2,10.2-10.2h39.3c5.6,0,10.2,4.6,10.2,10.2
		l0,0C7918.4,489,7913.8,493.6,7908.2,493.6z"/>
	<path class="st51" d="M7974.6,493.6h-39.3c-5.6,0-10.2-4.6-10.2-10.2l0,0c0-5.6,4.6-10.2,10.2-10.2h39.3c5.6,0,10.2,4.6,10.2,10.2
		l0,0C7984.8,489,7980.2,493.6,7974.6,493.6z"/>
	<path class="st52" d="M7986.8,493.3L7986.8,493.3c-5.6,0-10.2-4.6-10.2-10.2v-25.9c0-5.6,4.6-10.2,10.2-10.2l0,0
		c5.6,0,10.2,4.6,10.2,10.2V483C7997.1,488.7,7992.5,493.3,7986.8,493.3z"/>
	<path class="st52" d="M7783.8,493.3L7783.8,493.3c-5.6,0-10.2-4.6-10.2-10.2v-25.9c0-5.6,4.6-10.2,10.2-10.2l0,0
		c5.6,0,10.2,4.6,10.2,10.2V483C7794,488.7,7789.4,493.3,7783.8,493.3z"/>
	<path class="st21" d="M7561.8,385.6h-53.9c-1.3,0-2.4-1.1-2.4-2.4l0,0c0-1.3,1.1-2.4,2.4-2.4h53.9c1.3,0,2.4,1.1,2.4,2.4l0,0
		C7564.2,384.5,7563.1,385.6,7561.8,385.6z"/>
	<path class="st21" d="M7472.6,412.9h-53.9c-1.3,0-2.4-1.1-2.4-2.4l0,0c0-1.3,1.1-2.4,2.4-2.4h53.9c1.3,0,2.4,1.1,2.4,2.4l0,0
		C7475,411.8,7473.9,412.9,7472.6,412.9z"/>
	<path class="st53" d="M7559.2,380.3h-16.5c-4.4,0-7.9-3.6-7.9-7.9l0,0c0-4.4,3.6-7.9,7.9-7.9h16.5c4.4,0,7.9,3.6,7.9,7.9l0,0
		C7567.2,376.7,7563.6,380.3,7559.2,380.3z"/>
	<path class="st54" d="M7557.1,378.1h-12.2c-3.1,0-5.7-2.6-5.7-5.7l0,0c0-3.1,2.6-5.7,5.7-5.7h12.2c3.1,0,5.7,2.6,5.7,5.7l0,0
		C7562.8,375.5,7560.2,378.1,7557.1,378.1z"/>
	<path class="st55" d="M7527,325.8c0,0-9.7,11.8-9.7,20.7"/>
	<path class="st55" d="M7518,324.7c3.3,8.3-1.4,22.8-1.4,22.8"/>
	<path class="st56" d="M7513.2,344.7h6.6c0,0,13.1,37,3.9,37h-9.2c0,0-2.2,0.8-1.3-8.8V344.7z"/>
	<path class="st57" d="M7510.1,319l2.8,2.7l0.2-4.8l4.1,2.4l1.9-3.8c0,0,3.4,7.8-2.6,10.3C7516.5,325.8,7510.5,325.8,7510.1,319z"/>
	<path class="st57" d="M7528.7,316.6l-0.7,3.9l4.2-2.7l0.3,4.8l4.3-0.7c0,0-4.7,7.5-10.3,4C7526.6,325.9,7523.1,320.9,7528.7,316.6z
		"/>
	<path class="st17" d="M8145.7,474.6h-88.5c-1.3,0-2.4-1.1-2.4-2.4v-1.4c0-1.3,1.1-2.4,2.4-2.4h88.5c1.3,0,2.4,1.1,2.4,2.4v1.4
		C8148.1,473.5,8147,474.6,8145.7,474.6z"/>
	<path class="st58" d="M8133.5,481.6h-64.1c-1.3,0-2.4-1.1-2.4-2.4v-1.4c0-1.3,1.1-2.4,2.4-2.4h64.1c1.3,0,2.4,1.1,2.4,2.4v1.4
		C8135.9,480.5,8134.8,481.6,8133.5,481.6z"/>
	<path class="st58" d="M8075.4,507.7L8075.4,507.7c-1.5,0-2.7-1.2-2.7-2.7v-24.5c0-1.5,1.2-2.7,2.7-2.7l0,0c1.5,0,2.7,1.2,2.7,2.7
		V505C8078.1,506.5,8076.9,507.7,8075.4,507.7z"/>
	<path class="st58" d="M8128.2,507.7L8128.2,507.7c-1.5,0-2.7-1.2-2.7-2.7v-24.5c0-1.5,1.2-2.7,2.7-2.7l0,0c1.5,0,2.7,1.2,2.7,2.7
		V505C8130.9,506.5,8129.7,507.7,8128.2,507.7z"/>
	<path class="st58" d="M8140.1,440.5c0,0-74.7-3.5-73.1,0c6.4,13.9,18,19,26.4,20.9v6.9h23.3v-7.1
		C8139.3,456.8,8140.1,440.5,8140.1,440.5z"/>
	<circle class="st59" cx="8089.4" cy="430.5" r="8.7"/>
	<circle class="st59" cx="8116.8" cy="430.5" r="8.7"/>
	<circle class="st60" cx="8128.2" cy="430.5" r="8.7"/>
	<circle class="st60" cx="8075.4" cy="430.5" r="8.7"/>
	<circle class="st61" cx="8103.5" cy="430.5" r="8.7"/>
	<g class="st32">
		<path class="st62" d="M8196.1,493.1v13.7h-18.7C8177.4,506.9,8178.1,497.5,8196.1,493.1z"/>
		<path class="st63" d="M8223.2,507.7h-43.4c-1.3,0-2.3-1-2.3-2.3l0,0c0-1.3,1-2.3,2.3-2.3h43.4c1.3,0,2.3,1,2.3,2.3l0,0
			C8225.4,506.6,8224.4,507.7,8223.2,507.7z"/>
	</g>
	<g class="st32">
		<path class="st62" d="M8265.6,492.7v13.7h-18.7C8246.9,506.5,8247.6,497.1,8265.6,492.7z"/>
		<path class="st63" d="M8292.6,507.3h-43.4c-1.3,0-2.3-1-2.3-2.3l0,0c0-1.3,1-2.3,2.3-2.3h43.4c1.3,0,2.3,1,2.3,2.3l0,0
			C8294.9,506.2,8293.9,507.3,8292.6,507.3z"/>
	</g>
	<rect x="7431.8" y="381.3" class="st64" width="27.6" height="27.6"/>
	<rect x="7473.2" y="496" class="st18" width="38" height="11.7"/>
	<rect x="7262.4" y="420.7" class="st25" width="115" height="7.6"/>
	<rect x="7272.2" y="428.4" class="st25" width="96.3" height="78.4"/>
	<path class="st65" d="M7290.1,507.9v-56.5c0,0,4.9-12.9,33.8-13.9c0,0,24.1,1.6,28.9,16.3v54"/>
	<path class="st66" d="M7315.2,471.3l-4-2.8c0,0-5.6,14.9,0,22.9c5.6,8,11.2,4.4,15.3,2.4c0,0,7.2-3.2,3.6-15.3l-6.4-14.9l-2,4.8
		l-3.2-4.8L7315.2,471.3z"/>
	<path class="st67" d="M7319.9,476.2l3,3.9v-1.9c0,0,5.6,7.3,0,10.9c0,0-10-0.2-8.8-9l3.6,2.5L7319.9,476.2z"/>
	<path class="st18" d="M7337.4,505.9h-30.6c-2.1,0-3.8-1.7-3.8-3.8l0,0c0-2.1,1.7-3.8,3.8-3.8h30.6c2.1,0,3.8,1.7,3.8,3.8l0,0
		C7341.1,504.2,7339.4,505.9,7337.4,505.9z"/>
	<path class="st68" d="M7285.7,442.8h-11.5c-1.1,0-2-0.9-2-2l0,0c0-1.1,0.9-2,2-2h11.5c1.1,0,2,0.9,2,2l0,0
		C7287.7,441.9,7286.8,442.8,7285.7,442.8z"/>
	<path class="st68" d="M7285.7,484.6h-11.5c-1.1,0-2-0.9-2-2l0,0c0-1.1,0.9-2,2-2h11.5c1.1,0,2,0.9,2,2l0,0
		C7287.7,483.7,7286.8,484.6,7285.7,484.6z"/>
	<path class="st68" d="M7298.5,433.7H7287c-1.1,0-2-0.9-2-2l0,0c0-1.1,0.9-2,2-2h11.5c1.1,0,2,0.9,2,2l0,0
		C7300.6,432.8,7299.7,433.7,7298.5,433.7z"/>
	<path class="st68" d="M7319.7,429.8h-11.5c-1.1,0-2-0.9-2-2l0,0c0-1.1,0.9-2,2-2h11.5c1.1,0,2,0.9,2,2l0,0
		C7321.7,428.9,7320.8,429.8,7319.7,429.8z"/>
	<path class="st68" d="M7346.8,435.7h-11.5c-1.1,0-2-0.9-2-2l0,0c0-1.1,0.9-2,2-2h11.5c1.1,0,2,0.9,2,2l0,0
		C7348.9,434.8,7348,435.7,7346.8,435.7z"/>
	<path class="st68" d="M7364.2,484.6h-7.4c-1.1,0-2-0.9-2-2l0,0c0-1.1,0.9-2,2-2h7.4c1.1,0,2,0.9,2,2l0,0
		C7366.3,483.7,7365.4,484.6,7364.2,484.6z"/>
	<path class="st68" d="M7366.3,427.8h-11.5c-1.1,0-2-0.9-2-2l0,0c0-1.1,0.9-2,2-2h11.5c1.1,0,2,0.9,2,2l0,0
		C7368.3,426.9,7367.4,427.8,7366.3,427.8z"/>
	<path class="st68" d="M7366.3,448.9h-11.5c-1.1,0-2-0.9-2-2l0,0c0-1.1,0.9-2,2-2h11.5c1.1,0,2,0.9,2,2l0,0
		C7368.3,448,7367.4,448.9,7366.3,448.9z"/>
	
		<image style="display:inline;overflow:visible;enable-background:new    ;" width="1300" height="1390" xlink:href="6451A5C48F623B7A.jpeg"  transform="matrix(0.36 0 0 0.36 6472.2002 -908.149)">
	</image>
	
		<image style="display:inline;overflow:visible;enable-background:new    ;" width="450" height="380" xlink:href="6451A5C48F623B7A.jpeg"  transform="matrix(1.3452 0 0 1.3452 6801.5127 819.5804)">
	</image>
	
		<image style="display:inline;overflow:visible;enable-background:new    ;" width="437" height="470" xlink:href="6451A5C48F623B66.jpeg"  transform="matrix(1.0647 0 0 1.0647 6336.2471 819.5804)">
	</image>
	<rect x="5983.3" y="425.2" class="st69" width="234.2" height="4.5"/>
	<rect x="5994.4" y="429.7" class="st70" width="212.6" height="75.6"/>
	<rect x="5508.8" y="259.2" class="st71" width="220.5" height="89.2"/>
	<rect x="5508.8" y="348.4" class="st21" width="220.5" height="10.8"/>
	<line class="st72" x1="5619" y1="259.2" x2="5619" y2="359.2"/>
	<rect x="5738.6" y="259.2" class="st71" width="220.5" height="89.2"/>
	<rect x="5738.6" y="348.4" class="st21" width="220.5" height="10.8"/>
	<line class="st72" x1="5848.9" y1="259.2" x2="5848.9" y2="359.2"/>
	<rect x="5517" y="425.2" class="st73" width="441.3" height="80"/>
	<rect x="5508" y="420.3" class="st74" width="456" height="9.3"/>
	<rect x="5536.2" y="376.7" class="st75" width="82.8" height="43.6"/>
	<rect x="5544.9" y="384.8" class="st74" width="52.6" height="29.6"/>
	<rect x="5602.4" y="384.8" class="st74" width="8" height="8"/>
	<rect x="5602.4" y="404.4" class="st74" width="8" height="8"/>
	<path class="st76" d="M5635.2,396h23.8c0,0,1,5-3,8c0,0-2.5,3.5-4.5,3.5l0.8,2.5h-10l0.2-1.5C5642.5,408.5,5634,405.8,5635.2,396z"
		/>
	<path class="st76" d="M5663,392.8l23.6,3c0,0,0.4,5.1-4,7.6c0,0-2.9,3.2-4.9,2.9l0.4,2.6l-9.9-1.3l0.4-1.5
		C5668.6,406.1,5660.5,402.3,5663,392.8z"/>
	<path class="st77" d="M5635.2,401.3h23.8c0,0,1,5-3,8c0,0-2.5,3.5-4.5,3.5l0.8,2.5h-10l0.2-1.5C5642.5,413.8,5634,411,5635.2,401.3
		z"/>
	<path class="st78" d="M5635.2,406.8h23.8c0,0,1,5-3,8c0,0-2.5,3.5-4.5,3.5l0.8,2.5h-10l0.2-1.5
		C5642.5,419.3,5634,416.5,5635.2,406.8z"/>
	<path class="st79" d="M5662,401.3h23.8c0,0,1,5-3,8c0,0-2.5,3.5-4.5,3.5l0.8,2.5h-10l0.2-1.5C5669.2,413.8,5660.7,411,5662,401.3z"
		/>
	<path class="st80" d="M5662.7,408.3h23.8c0,0,1,5-3,8c0,0-2.5,3.5-4.5,3.5l0.8,2.5h-10l0.2-1.5
		C5669.9,420.8,5661.4,418,5662.7,408.3z"/>
	<path class="st77" d="M6666.5-722.1c0,0,9-2.7,18.7-2.7c0,0,5.7,0.3,11.7,2.7C6696.9-722.1,6672.5-720.4,6666.5-722.1z"/>
	<path class="st77" d="M6681.7-724.7c0,0-5.8-2.3-3.5-3c0,0,6-1.3,7.3,0C6685.5-727.7,6685.6-725.2,6681.7-724.7z"/>
	<path class="st79" d="M6666.5-719.7h30.3v16.7c0,0,1,2-5.7,2.3h-20.7c0,0-4.7-0.7-4-4.3L6666.5-719.7L6666.5-719.7z"/>
	<rect x="6663.9" y="-719.7" class="st81" width="2.6" height="2.6"/>
	<rect x="6655.5" y="-721.3" class="st82" width="11" height="1.6"/>
	<rect x="6697" y="-719" class="st81" width="2.7" height="2.6"/>
	<rect x="6697" y="-720.5" class="st82" width="11.3" height="1.6"/>
	<polyline class="st83" points="6672.5,-699.4 6663.9,-699.4 6663.9,-689.1 	"/>
	<polyline class="st83" points="6691.9,-699.4 6699.7,-699.4 6699.7,-689.1 	"/>
	<rect x="6672.5" y="-694.2" class="st84" width="19.3" height="5.2"/>
	<line class="st83" x1="6681.6" y1="-699.4" x2="6681.7" y2="-689.1"/>
	<rect x="6658.2" y="-689.1" class="st85" width="48" height="3"/>
	<path class="st77" d="M5723,386.9c0,0,9-3.5,18.7-3.5c0,0,5.7,0.4,11.7,3.5C5753.3,386.9,5729,389.1,5723,386.9z"/>
	<path class="st77" d="M5738.2,383.2c0,0-5.8-2.3-3.5-3c0,0,6-1.3,7.3,0C5742,380.2,5742.1,382.7,5738.2,383.2z"/>
	<path class="st79" d="M5723,388.2h30.3v16.7c0,0,1,2-5.7,2.3H5727c0,0-4.7-0.7-4-4.3V388.2z"/>
	<rect x="5720.3" y="388.2" class="st81" width="2.6" height="2.6"/>
	<rect x="5712" y="386.6" class="st82" width="11" height="1.6"/>
	<rect x="5753.4" y="388.9" class="st81" width="2.7" height="2.6"/>
	<rect x="5753.4" y="387.3" class="st82" width="11.3" height="1.6"/>
	<rect x="5728.9" y="411.9" class="st84" width="19.3" height="5.2"/>
	<path class="st86" d="M5717.4,417c0,0-1-8.6,5.4-8.6l8.1-0.2"/>
	<path class="st86" d="M5758.4,416.8c0,0,0.8-8.6-4.2-8.6l-6.2-0.2"/>
	<line class="st86" x1="5738.1" y1="406.8" x2="5738.6" y2="418.5"/>
	<rect x="5714.6" y="417" class="st85" width="48" height="3"/>
	<rect x="5785.3" y="411.9" class="st84" width="19.3" height="5.2"/>
	<path class="st86" d="M5773.8,417c0,0-1-8.6,5.4-8.6l8.1-0.2"/>
	<path class="st86" d="M5814.8,416.8c0,0,0.8-8.6-4.2-8.6l-6.2-0.2"/>
	<line class="st86" x1="5794.4" y1="406.8" x2="5794.9" y2="418.5"/>
	<rect x="5770.9" y="417" class="st85" width="48" height="3"/>
	<g id="Layer_3_1_" class="st32">
		<path class="st87" d="M6042.5,439.5v-18.6c0,0-0.7-19,22.4-17.4c0,0,18.6,1.7,17.3,21.1l0.1,14.9
			C6082.2,439.5,6040.4,439.1,6042.5,439.5z"/>
		<rect x="6042.5" y="439.5" class="st88" width="39.8" height="17"/>
		<rect x="6042.5" y="456.5" class="st89" width="5.8" height="51.3"/>
		<rect x="6074.3" y="456.5" class="st89" width="5.8" height="51.3"/>
		<path class="st87" d="M6094.2,440.4v-18.6c0,0-0.7-19,22.4-17.4c0,0,18.6,1.7,17.3,21.1l0.1,14.9
			C6134,440.4,6092.1,440,6094.2,440.4z"/>
		<rect x="6094.2" y="440.4" class="st88" width="39.8" height="17"/>
		<rect x="6094.2" y="457.3" class="st89" width="5.8" height="51.3"/>
		<rect x="6126" y="457.3" class="st89" width="5.8" height="51.3"/>
		<path class="st87" d="M6145.1,440.4v-18.6c0,0-0.7-19,22.4-17.4c0,0,18.6,1.7,17.3,21.1l0.1,14.9
			C6184.9,440.4,6143,440,6145.1,440.4z"/>
		<rect x="6145.1" y="440.4" class="st88" width="39.8" height="17"/>
		<rect x="6145.1" y="457.3" class="st89" width="5.8" height="51.3"/>
		<rect x="6176.9" y="457.3" class="st89" width="5.8" height="51.3"/>
		<rect x="6808.5" y="-772.6" class="st90" width="93.1" height="2.6"/>
		<polygon class="st90" points="6835.5,-776 6839.5,-776 6839.5,-765.6 6834.9,-765.6 		"/>
		<path class="st91" d="M6836-765.6l0.6,29.6l-5.4,3.8c0,0-1,1.1-1.1,3v7.8h14.2c0,0-0.2-8.9-0.6-9.6l-4.2-5l-1.6-29.5L6836-765.6
			L6836-765.6z"/>
		<rect x="6854.3" y="-776" class="st92" width="3.9" height="10.4"/>
		<rect x="6874.1" y="-776" class="st92" width="3.9" height="10.4"/>
		<rect x="6892.8" y="-776" class="st92" width="3.9" height="10.4"/>
		<path class="st91" d="M6857-736.2l-0.1-29.4h-1.8v29.4l-5.3,4.5c0,0-1.4,10.1-1,10.2s15.1,0,15.1,0v-9.4L6857-736.2z
			 M6851.5-722.7h-0.8v-5.1h0.8V-722.7z M6853.4-722.7h-0.8v-5.1h0.8V-722.7z M6855.3-722.7h-0.8v-5.1h0.8V-722.7z M6857.2-722.7
			h-0.8v-5.1h0.8V-722.7z M6859-722.7h-0.8v-5.1h0.8V-722.7z M6860.9-722.7h-0.8v-5.1h0.8V-722.7z M6862.8-722.7h-0.8v-5.1h0.8
			V-722.7z"/>
		<path class="st91" d="M6874.9-765.6v29.3c0,0-6.2,3.8-5.9,7.9c0,0-0.1,7.5,7.6,6.9c0,0,10.5-3.4,3-12.4l-2.9-2.2l-0.4-29.4
			L6874.9-765.6L6874.9-765.6z"/>
		
			<ellipse transform="matrix(0.9441 -0.3298 0.3298 0.9441 625.7719 2233.7849)" class="st93" cx="6896.9" cy="-727.5" rx="0.9" ry="0.9"/>
		<path class="st91" d="M6901.2-728.6c0,0,0.1-3-5.6-7.6l-0.1-29.4h-1.6l-0.4,29.4c0,0-5.9,3.9-5.4,8.3c0,0,0.7,7.1,7,6.4
			C6895.2-721.5,6902-722.8,6901.2-728.6z M6893.1-726.6c-0.5,0.2-1-0.1-1.2-0.6c-0.2-0.5,0.1-1,0.6-1.2s1,0.1,1.2,0.6
			C6893.8-727.2,6893.6-726.7,6893.1-726.6z M6892.8-730.2c-0.5,0-0.9-0.4-0.9-0.9s0.4-0.9,0.9-0.9s0.9,0.4,0.9,0.9
			C6893.7-730.6,6893.3-730.2,6892.8-730.2z M6897-726.6c-0.5,0.2-1-0.1-1.2-0.6c-0.2-0.5,0.1-1,0.6-1.2s1,0.1,1.2,0.6
			C6897.7-727.2,6897.4-726.7,6897-726.6z M6896.7-730.2c-0.5,0-0.9-0.4-0.9-0.9s0.4-0.9,0.9-0.9s0.9,0.4,0.9,0.9
			C6897.6-730.6,6897.2-730.2,6896.7-730.2z"/>
		<path class="st94" d="M6826.8-740.1l-8.4-26.8l0.5-2.2c1.8-5.7-1.6-5.7-1.6-5.7c-4.3,0.9-1.1,7.8-1.1,7.8l-16,5.2l4,14l-3.5,7.8
			c-1.7,3.7,1.2,4.9,1.2,4.9c3.5,0.5,5-3.8,5-3.8c-0.1,1.9,2.9,7.7,2.9,7.7c4.6,6.4,13,2.4,13,2.4
			C6829.3-733.4,6826.8-740.1,6826.8-740.1z M6817.1-767.4c0,0-3-5.2,0.5-6.1c0,0,2.4,2.2,0,5.8L6817.1-767.4z"/>
		<rect x="5880.8" y="381.2" class="st90" width="57.6" height="1.6"/>
		<polygon class="st90" points="5897.4,379.1 5899.9,379.1 5899.9,385.6 5897.1,385.6 		"/>
		<path class="st91" d="M5897.8,385.6l0.4,18.3l-3.3,2.3c0,0-0.6,0.7-0.7,1.9v4.8h8.8c0,0-0.2-5.5-0.4-6l-2.6-3.1l-1-18.2H5897.8z"
			/>
		<rect x="5909" y="379.1" class="st92" width="2.4" height="6.4"/>
		<rect x="5921.3" y="379.1" class="st92" width="2.4" height="6.4"/>
		<rect x="5932.8" y="379.1" class="st92" width="2.4" height="6.4"/>
		<path class="st91" d="M5910.7,403.7l-0.1-18.2h-1.1v18.2l-3.3,2.8c0,0-0.9,6.3-0.6,6.3c0.2,0.1,9.4,0,9.4,0V407L5910.7,403.7z
			 M5907.3,412.1h-0.5v-3.2h0.5V412.1z M5908.5,412.1h-0.5v-3.2h0.5V412.1z M5909.7,412.1h-0.5v-3.2h0.5V412.1z M5910.8,412.1h-0.5
			v-3.2h0.5V412.1z M5912,412.1h-0.5v-3.2h0.5V412.1z M5913.1,412.1h-0.5v-3.2h0.5V412.1z M5914.3,412.1h-0.5v-3.2h0.5V412.1z"/>
		<path class="st91" d="M5921.8,385.6v18.1c0,0-3.9,2.4-3.6,4.9c0,0-0.1,4.6,4.7,4.3c0,0,6.5-2.1,1.9-7.7l-1.8-1.4l-0.2-18.2
			L5921.8,385.6L5921.8,385.6z"/>
		
			<ellipse transform="matrix(0.9441 -0.3298 0.3298 0.9441 197.1178 1980.2712)" class="st93" cx="5935.3" cy="409.1" rx="0.6" ry="0.6"/>
		<path class="st91" d="M5938.1,408.4c0,0,0.1-1.9-3.5-4.7v-18.2h-1l-0.3,18.2c0,0-3.7,2.4-3.3,5.1c0,0,0.4,4.4,4.3,3.9
			C5934.3,412.8,5938.5,412,5938.1,408.4z M5933,409.7c-0.3,0.1-0.6-0.1-0.7-0.3c-0.1-0.3,0.1-0.6,0.3-0.7c0.3-0.1,0.6,0.1,0.7,0.3
			C5933.4,409.2,5933.3,409.6,5933,409.7z M5932.8,407.4c-0.3,0-0.6-0.3-0.6-0.6s0.3-0.6,0.6-0.6c0.3,0,0.6,0.3,0.6,0.6
			C5933.4,407.2,5933.2,407.4,5932.8,407.4z M5935.4,409.7c-0.3,0.1-0.6-0.1-0.7-0.3c-0.1-0.2,0.1-0.6,0.3-0.7
			c0.3-0.1,0.6,0.1,0.7,0.3C5935.9,409.3,5935.7,409.6,5935.4,409.7z M5935.2,407.4c-0.3,0-0.6-0.3-0.6-0.6s0.3-0.6,0.6-0.6
			c0.3,0,0.6,0.3,0.6,0.6C5935.8,407.2,5935.6,407.4,5935.2,407.4z"/>
		<path class="st94" d="M5892,401.3l-5.2-16.6l0.3-1.3c1.1-3.5-1-3.5-1-3.5c-2.7,0.6-0.7,4.8-0.7,4.8l-9.9,3.2l2.5,8.7l-2.2,4.8
			c-1,2.3,0.7,3,0.7,3c2.2,0.3,3.1-2.3,3.1-2.3c-0.1,1.2,1.8,4.8,1.8,4.8c2.8,3.9,8,1.5,8,1.5C5893.6,405.5,5892,401.3,5892,401.3z
			 M5886.1,384.5c0,0-1.9-3.2,0.3-3.8c0,0,1.5,1.3,0,3.6L5886.1,384.5z"/>
	</g>
	<path class="st37" d="M4905.3-126.1c0,0,1.3,26.7,15.3,34.7c0,0-4.7,13.3-7.7,14.7h11.7v-4.7h9.3v-4l101.3,1.3v4.7l10-0.7v3.3h13.3
		c0,0-7.3-5.3-9.3-12c0,0,28.7-8,28.7-37.3H4905.3z"/>
	<path class="st95" d="M5076.2-126.1h-169.7c-2.8,0-5.1-2.3-5.1-5.1v0c0-2.8,2.3-5.1,5.1-5.1h169.7c2.8,0,5.1,2.3,5.1,5.1v0
		C5081.3-128.4,5079-126.1,5076.2-126.1z"/>
	<path class="st96" d="M4952.7-211.5c0,0,0-17.3-18.7-17.3c0,0-18,2.7-16,22l-0.2,70.4h-8.5v-71.7c0,0,2-21.6,24-23.8
		c0,0,22-1.5,23.3,21.1l4.7,6l-14-0.7L4952.7-211.5z"/>
	<circle class="st97" cx="4927.3" cy="-169.5" r="5.3"/>
	<circle class="st96" cx="4901.3" cy="-169.5" r="5.3"/>
	<path class="st37" d="M4374.3,458.4c0,0,1.3,26.7,15.3,34.7c0,0-4.7,13.3-7.7,14.7h11.7V503h9.3v-4l101.3,1.3v4.7l10-0.7v3.3h13.3
		c0,0-7.3-5.3-9.3-12c0,0,28.7-8,28.7-37.3H4374.3z"/>
	<path class="st95" d="M4545.2,458.4h-169.7c-2.8,0-5.1-2.3-5.1-5.1l0,0c0-2.8,2.3-5.1,5.1-5.1h169.7c2.8,0,5.1,2.3,5.1,5.1l0,0
		C4550.3,456.1,4548,458.4,4545.2,458.4z"/>
	<path class="st96" d="M4421.7,373c0,0,0-17.3-18.7-17.3c0,0-18,2.7-16,22l-0.2,70.4h-8.5v-71.7c0,0,2-21.6,24-23.8
		c0,0,22-1.5,23.3,21.1l4.7,6l-14-0.7L4421.7,373z"/>
	<circle class="st97" cx="4396.3" cy="415" r="5.3"/>
	<circle class="st96" cx="4370.3" cy="415" r="5.3"/>
</g>
<g id="Foreground" class="st15">
	<rect x="-9" y="506.9" class="st37" width="14693" height="122.5"/>
	<rect x="-4.5" y="49" class="st37" width="154.1" height="498.7"/>
	<rect x="14532.5" y="49" class="st37" width="154.1" height="457.8"/>
	<rect x="0" class="st98" width="14690.8" height="49"/>
</g>
</svg>
