<?xml version="1.0" encoding="utf-8"?>
<!-- Generator: Adobe Illustrator 19.2.0, SVG Export Plug-In . SVG Version: 6.00 Build 0)  -->
<svg version="1.1" id="Layer_1" xmlns="http://www.w3.org/2000/svg" xmlns:xlink="http://www.w3.org/1999/xlink" x="0px" y="0px"
	 viewBox="0 0 44.3 52.3" style="enable-background:new 0 0 44.3 52.3;" xml:space="preserve">
<style type="text/css">
	.st0{fill:#E3792B;}
	.st1{fill:#E37A2B;stroke:#FBBB91;stroke-miterlimit:10;}
	.st2{fill:#0E9385;}
	.st3{fill:#E9D6B8;}
</style>
<path class="st0" d="M32.3,44.3H12c-6.6,0-12-5.4-12-12V12C0,5.4,5.4,0,12,0h20.3c6.6,0,12,5.4,12,12v20.3
	C44.3,38.9,38.9,44.3,32.3,44.3z"/>
<rect x="6.5" y="13.1" class="st1" width="32" height="8.8"/>
<rect x="6.5" y="26" class="st1" width="32" height="8.8"/>
<path class="st2" d="M9.6,52.3L9.6,52.3c-1,0-1.8-0.8-1.8-1.8V46c0-1,0.8-1.8,1.8-1.8l0,0c1,0,1.8,0.8,1.8,1.8v4.5
	C11.4,51.5,10.6,52.3,9.6,52.3z"/>
<path class="st2" d="M38.5,52.3L38.5,52.3c-1,0-1.8-0.8-1.8-1.8V46c0-1,0.8-1.8,1.8-1.8l0,0c1,0,1.8,0.8,1.8,1.8v4.5
	C40.3,51.5,39.5,52.3,38.5,52.3z"/>
<circle class="st3" cx="22.5" cy="17.9" r="1.1"/>
<circle class="st3" cx="22.5" cy="30.5" r="1.1"/>
</svg>
