<?xml version="1.0" encoding="utf-8"?>
<!-- Generator: Adobe Illustrator 19.2.0, SVG Export Plug-In . SVG Version: 6.00 Build 0)  -->
<svg version="1.1" id="Layer_1" xmlns="http://www.w3.org/2000/svg" xmlns:xlink="http://www.w3.org/1999/xlink" x="0px" y="0px"
	 viewBox="0 0 185.3 155.2" style="enable-background:new 0 0 185.3 155.2;" xml:space="preserve">
<style type="text/css">
	.st0{fill:#483F31;}
	.st1{fill:#1CAEB1;enable-background:new    ;}
	.st2{fill:#1CAEB1;}
	.st3{fill:#F74447;enable-background:new    ;}
</style>
<path class="st0" d="M9.3,105.8c0,0,1.3,26.7,15.3,34.7c0,0-4.7,13.3-7.7,14.7h11.7v-4.7H38v-4l101.3,1.3v4.7l10-0.7v3.3h13.3
	c0,0-7.3-5.3-9.3-12c0,0,28.7-8,28.7-37.3H9.3z"/>
<path class="st1" d="M180.2,105.8H10.5c-2.8,0-5.1-2.3-5.1-5.1v0c0-2.8,2.3-5.1,5.1-5.1h169.7c2.8,0,5.1,2.3,5.1,5.1v0
	C185.3,103.5,183,105.8,180.2,105.8z"/>
<path class="st2" d="M56.7,20.5c0,0,0-17.3-18.7-17.3c0,0-18,2.7-16,22l-0.2,70.4h-8.5V23.8c0,0,2-21.6,24-23.8
	c0,0,22-1.5,23.3,21.1l4.7,6l-14-0.7L56.7,20.5z"/>
<circle class="st3" cx="31.3" cy="62.5" r="5.3"/>
<circle class="st2" cx="5.3" cy="62.5" r="5.3"/>
</svg>
