<?xml version="1.0" encoding="utf-8"?>
<!-- Generator: Adobe Illustrator 19.2.0, SVG Export Plug-In . SVG Version: 6.00 Build 0)  -->
<svg version="1.1" id="Layer_1" xmlns="http://www.w3.org/2000/svg" xmlns:xlink="http://www.w3.org/1999/xlink" x="0px" y="0px"
	 viewBox="0 0 35.2 14.7" style="enable-background:new 0 0 35.2 14.7;" xml:space="preserve">
<style type="text/css">
	.st0{fill:#02AC9C;}
	.st1{fill:#E0C78F;}
	.st2{fill:none;stroke:#231F20;stroke-miterlimit:10;}
</style>
<path class="st0" d="M4.5,2.1c0,0,2.2-2.6,6.6-2L27.2,0c0,0,2.2-0.1,3.7,2.1l4,9.1c0,0,1.1,3.3-1.1,3.5H2.5c0,0-3.5-1-2.2-3.5
	L4.5,2.1z"/>
<path class="st1" d="M11.6,2.2h11.9c0,0,3.1,1.1,4.2,4.6l1.3,3.7c0,0-0.4,1.5-3.1,2H8.5c0,0-3.5-0.9-1.8-4.2
	C6.7,8.3,8.7,3.3,11.6,2.2z"/>
<line class="st2" x1="17.6" y1="3.5" x2="17.6" y2="5.5"/>
<line class="st2" x1="23.6" y1="7.4" x2="25.6" y2="7.4"/>
<line class="st2" x1="8.9" y1="7.4" x2="10.9" y2="7.4"/>
<polyline class="st2" points="14,4.5 16.5,7.4 21.3,7.4 "/>
</svg>
