<?xml version="1.0" encoding="utf-8"?>
<!-- Generator: Adobe Illustrator 19.2.0, SVG Export Plug-In . SVG Version: 6.00 Build 0)  -->
<svg version="1.1" id="Layer_1" xmlns="http://www.w3.org/2000/svg" xmlns:xlink="http://www.w3.org/1999/xlink" x="0px" y="0px"
	 viewBox="0 0 16.8 29.2" style="enable-background:new 0 0 16.8 29.2;" xml:space="preserve">
<style type="text/css">
	.st0{fill:#7492A1;}
</style>
<path class="st0" d="M16.5,21.4L11.3,4.8l0.3-1.3c1.1-3.5-1-3.5-1-3.5C7.9,0.6,9.9,4.8,9.9,4.8L0,8l2.5,8.7l-2.2,4.8
	c-1,2.3,0.7,3,0.7,3c2.2,0.3,3.1-2.3,3.1-2.3C4,23.4,5.9,27,5.9,27c2.8,3.9,8,1.5,8,1.5C18.1,25.6,16.5,21.4,16.5,21.4z M10.6,4.6
	c0,0-1.9-3.2,0.3-3.8c0,0,1.5,1.3,0,3.6L10.6,4.6z"/>
</svg>
