<?xml version="1.0" encoding="utf-8"?>
<!-- Generator: Adobe Illustrator 19.2.0, SVG Export Plug-In . SVG Version: 6.00 Build 0)  -->
<svg version="1.1" id="Layer_1" xmlns="http://www.w3.org/2000/svg" xmlns:xlink="http://www.w3.org/1999/xlink" x="0px" y="0px"
	 viewBox="0 0 52.7 27.6" style="enable-background:new 0 0 52.7 27.6;" xml:space="preserve">
<style type="text/css">
	.st0{fill:#D87F6E;}
	.st1{fill:#9DC3A7;}
	.st2{fill:#5E3229;}
	.st3{fill:#D55662;}
</style>
<path class="st0" d="M11,7.3c0,0,9-3.5,18.7-3.5c0,0,5.7,0.4,11.7,3.5C41.3,7.3,17,9.5,11,7.3z"/>
<path class="st0" d="M26.2,3.6c0,0-5.8-2.3-3.5-3c0,0,6-1.3,7.3,0C30,0.6,30.1,3.1,26.2,3.6z"/>
<path class="st1" d="M11,8.6h30.3v16.7c0,0,1,2-5.7,2.3H15c0,0-4.7-0.7-4-4.3V8.6z"/>
<rect x="8.3" y="8.6" class="st2" width="2.6" height="2.6"/>
<rect y="7" class="st3" width="11" height="1.6"/>
<rect x="41.4" y="9.3" class="st2" width="2.7" height="2.6"/>
<rect x="41.4" y="7.7" class="st3" width="11.3" height="1.6"/>
</svg>
