<?xml version="1.0" encoding="utf-8"?>
<!-- Generator: Adobe Illustrator 19.2.0, SVG Export Plug-In . SVG Version: 6.00 Build 0)  -->
<svg version="1.1" id="Layer_1" xmlns="http://www.w3.org/2000/svg" xmlns:xlink="http://www.w3.org/1999/xlink" x="0px" y="0px"
	 viewBox="0 0 42.2 27.3" style="enable-background:new 0 0 42.2 27.3;" xml:space="preserve">
<style type="text/css">
	.st0{fill:#B2C7DB;}
</style>
<path class="st0" d="M5.8,9.2c0,0,1.8-9.1,10.3-5.7c0,0,8.5-9.2,13.4,2.5c0,0,10.5-3.5,8.9,7.8c0,0,7.1,2.2,2.2,7.1c0,0-1.6,3-6.9,1
	c0,0-1.6,10.8-10.5,2.2c0,0-5.9,3.2-8.7-1.2c0,0-6.7,5.7-9.7-3c0,0-7.5-2-3.7-8.1C1,11.7,2,7.8,5.8,9.2z"/>
</svg>
