<?xml version="1.0" encoding="utf-8"?>
<!-- Generator: Adobe Illustrator 19.2.0, SVG Export Plug-In . SVG Version: 6.00 Build 0)  -->
<svg version="1.1" id="Layer_1" xmlns="http://www.w3.org/2000/svg" xmlns:xlink="http://www.w3.org/1999/xlink" x="0px" y="0px"
	 viewBox="0 0 66.8 69.7" style="enable-background:new 0 0 66.8 69.7;" xml:space="preserve">
<style type="text/css">
	.st0{fill:#4D54A0;}
	.st1{fill:#B2C7DB;}
	.st2{fill:#FF9E7C;}
	.st3{fill:#320C02;}
	.st4{fill:#FFFFFF;}
	.st5{fill:#8EC0CC;}
	.st6{fill:#D5E3EA;}
	.st7{fill:#F7C69F;}
	.st8{fill:#7196A0;}
	.st9{fill:none;stroke:#8EC0CC;stroke-miterlimit:10;}
</style>
<g>
	<path class="st0" d="M0,0v69.7h66.8V0H0z M64.3,67H2.5V2.6h61.8V67z"/>
	<rect x="2.5" y="2.6" class="st1" width="61.8" height="64.4"/>
</g>
<g>
	<path class="st2" d="M19.4,19.6c0,0,3.1-11.4,18.8-10c0,0,13.1,2.8,13.8,15.8c0,0,3.8,5.8-2.7,6.4c0,0-1.1,8-14,7.2
		c0,0-11.4-0.4-14-5.2c0,0-2.8-4.1-3.1-7.1C18.3,26.8,13.2,21.2,19.4,19.6z"/>
	<path class="st2" d="M24.6,36.7c0,0-3.1,1-3.3,2.3c0,0-1.6,1.7-0.5,5.8c0,0,14.9,9.3,24.7,0.4c0,0,2.3-6.2-0.3-7.9
		C45.2,37.3,30.1,40.2,24.6,36.7z"/>
	<path class="st2" d="M22.9,41.4c0,0,0.2-3.4-0.6-2.9c0,0-4.3,1.3-6.1-2.8c0,0-1.2-2.9-1-3.2c0.2-0.3-1.2-0.5-1.1,1.1
		c0,0-1.9-2.4-2.5,0.9c0,0-0.5,2.1,2.4,2.5c0,0,1.3,6.5,5.7,5.4L22.9,41.4z"/>
	<path class="st2" d="M45.1,41.4c0,0,0-3.4,0.7-2.8c0,0,3.7,1.5,5.4-2.4c0,0,1.2-2.8,1.1-3.1c-0.2-0.3,1.1-0.4,0.9,1.2
		c0,0,1.8-2.3,2.1,1.1c0,0,0.3,2.1-2.2,2.4c0,0-1.5,6.4-5.3,5L45.1,41.4z"/>
	
		<ellipse transform="matrix(3.255683e-02 -0.9995 0.9995 3.255683e-02 -1.2143 54.5019)" class="st3" cx="27.5" cy="27.9" rx="2.2" ry="1.7"/>
	
		<ellipse transform="matrix(3.255683e-02 -0.9995 0.9995 3.255683e-02 12.8544 70.0168)" class="st3" cx="42.6" cy="28.4" rx="2.2" ry="1.7"/>
	
		<ellipse transform="matrix(3.255683e-02 -0.9995 0.9995 3.255683e-02 -1.5011 53.274)" class="st4" cx="26.8" cy="27.4" rx="0.8" ry="0.8"/>
	<ellipse transform="matrix(0.7298 -0.6837 0.6837 0.7298 -12.046 26.8479)" class="st4" cx="27.9" cy="28.7" rx="0.4" ry="0.4"/>
	
		<ellipse transform="matrix(3.255683e-02 -0.9995 0.9995 3.255683e-02 12.6705 68.9023)" class="st4" cx="41.9" cy="27.9" rx="0.8" ry="0.8"/>
	<ellipse transform="matrix(0.7298 -0.6837 0.6837 0.7298 -8.2871 37.3455)" class="st4" cx="43.1" cy="29.2" rx="0.4" ry="0.4"/>
	<g>
		<path class="st5" d="M35.1,31.9c0,0-6.6-1.9-7.3,1.3c0,0-2,4.2,4,6.1c0,0,5,1.9,7.7,0c0,0,4.6-1.5,2.8-6
			C42.2,33.3,40.6,30.4,35.1,31.9z"/>
		<ellipse transform="matrix(0.1483 -0.9889 0.9889 0.1483 -6.4753 65.6871)" class="st6" cx="34.9" cy="36.6" rx="2.1" ry="4.3"/>
		<ellipse transform="matrix(0.3159 -0.9488 0.9488 0.3159 -12.4387 51.8143)" class="st7" cx="29.7" cy="34.5" rx="1.1" ry="1.1"/>
		<ellipse transform="matrix(0.3159 -0.9488 0.9488 0.3159 -5.6045 62.7878)" class="st7" cx="40.7" cy="35.3" rx="1.1" ry="1.1"/>
		<path class="st8" d="M31.3,37.3c0,0-0.4,4.4,4.2,4.5c0,0,4.3-0.1,3.3-3.9l-0.4,0.3c0,0,1.1,2-1.5,2.9c0,0-2.9,1.3-4.8-1
			c0,0-0.8-1.8-0.4-2.4L31.3,37.3z"/>
	</g>
	<path class="st9" d="M31.6,9.9c-0.2,0-4,6.2,3.8,6.2c0,0,5.1-0.7,1.8-3.6c0,0-3-2-4,2.1c0,0,0,5,4.5,4.6c0,0,3.1-0.6,3.6-1.7"/>
	<path class="st4" d="M22,44.7c0,0-4.1,1.8-1.8,5.8s12.4,4.9,17,4.4c0,0,15,0.8,7.6-8C44.7,46.8,32.3,51.1,22,44.7z"/>
	
		<ellipse transform="matrix(3.255683e-02 -0.9995 0.9995 3.255683e-02 -31.9509 80.4457)" class="st2" cx="25.6" cy="56.7" rx="6.5" ry="4.8"/>
	
		<ellipse transform="matrix(3.255683e-02 -0.9995 0.9995 3.255683e-02 -18.5782 95.1931)" class="st2" cx="39.9" cy="57.2" rx="6.5" ry="4.8"/>
	
		<ellipse transform="matrix(3.255683e-02 -0.9995 0.9995 3.255683e-02 -12.1671 95.2903)" class="st2" cx="43.1" cy="53.9" rx="4.1" ry="4.8"/>
	
		<ellipse transform="matrix(3.255683e-02 -0.9995 0.9995 3.255683e-02 -30.6993 73.3378)" class="st2" cx="22.5" cy="52.5" rx="4.1" ry="4.8"/>
	
		<ellipse transform="matrix(3.255683e-02 -0.9995 0.9995 3.255683e-02 -38.8657 87.1559)" class="st5" cx="25.6" cy="63.7" rx="3.4" ry="4.8"/>
	
		<ellipse transform="matrix(3.255683e-02 -0.9995 0.9995 3.255683e-02 -25.6197 101.7635)" class="st5" cx="39.8" cy="64.1" rx="3.4" ry="4.8"/>
</g>
</svg>
