<?xml version="1.0" encoding="utf-8"?>
<!-- Generator: Adobe Illustrator 19.2.0, SVG Export Plug-In . SVG Version: 6.00 Build 0)  -->
<svg version="1.1" id="Layer_1" xmlns="http://www.w3.org/2000/svg" xmlns:xlink="http://www.w3.org/1999/xlink" x="0px" y="0px"
	 viewBox="0 0 72.4 52.6" style="enable-background:new 0 0 72.4 52.6;" xml:space="preserve">
<style type="text/css">
	.st0{fill:#E0E7DC;}
	.st1{fill:#483F31;}
</style>
<path class="st0" d="M2.7,32.2L0,22.9h4l5.5,8.2c0,0,28.5-2.5,33.7-2.3l7.3-7.7h3.7l-2,7c0,0,13.2-2.3,17.2,0.7c0,0,4.5,3.3,2.7,6.7
	c0,0-1.2,1-9.3,1.7c0,0-12.7,1.2-13.6,1.2L26.2,52.6h-7.3l14.3-13.5c0,0-21.2,2.7-33.2-4.5L2.7,32.2z"/>
<ellipse transform="matrix(0.9964 -8.515215e-02 8.515215e-02 0.9964 -2.4339 5.1406)" class="st1" cx="59" cy="31.1" rx="0.9" ry="1.6"/>
<ellipse transform="matrix(0.9964 -8.515201e-02 8.515201e-02 0.9964 -2.512 4.9144)" class="st1" cx="56.4" cy="31.9" rx="0.9" ry="1"/>
<ellipse transform="matrix(0.9964 -8.515201e-02 8.515201e-02 0.9964 -2.5419 4.6819)" class="st1" cx="53.6" cy="32.1" rx="0.9" ry="1"/>
<ellipse transform="matrix(0.9964 -8.515201e-02 8.515201e-02 0.9964 -2.5718 4.4494)" class="st1" cx="50.9" cy="32.4" rx="0.9" ry="1"/>
<ellipse transform="matrix(0.9964 -8.515201e-02 8.515201e-02 0.9964 -2.6017 4.217)" class="st1" cx="48.1" cy="32.6" rx="0.9" ry="1"/>
<ellipse transform="matrix(0.9964 -8.515201e-02 8.515201e-02 0.9964 -2.6316 3.9845)" class="st1" cx="45.4" cy="32.8" rx="0.9" ry="1"/>
<ellipse transform="matrix(0.9964 -8.515201e-02 8.515201e-02 0.9964 -2.6615 3.752)" class="st1" cx="42.7" cy="33.1" rx="0.9" ry="1"/>
<ellipse transform="matrix(0.9964 -8.515201e-02 8.515201e-02 0.9964 -2.6959 3.4843)" class="st1" cx="39.5" cy="33.3" rx="0.9" ry="1"/>
<ellipse transform="matrix(0.9964 -8.515201e-02 8.515201e-02 0.9964 -2.7213 3.2871)" class="st1" cx="37.2" cy="33.5" rx="0.9" ry="1"/>
<ellipse transform="matrix(0.9964 -8.515201e-02 8.515201e-02 0.9964 -2.7412 3.0151)" class="st1" cx="34" cy="33.6" rx="0.9" ry="1"/>
<ellipse transform="matrix(0.9964 -8.515201e-02 8.515201e-02 0.9964 -2.7606 2.7519)" class="st1" cx="30.9" cy="33.7" rx="0.9" ry="1"/>
<ellipse transform="matrix(0.9964 -8.515201e-02 8.515201e-02 0.9964 -2.7757 2.5459)" class="st1" cx="28.5" cy="33.8" rx="0.9" ry="1"/>
<ellipse transform="matrix(0.9964 -8.515201e-02 8.515201e-02 0.9964 -2.7908 2.34)" class="st1" cx="26" cy="33.9" rx="0.9" ry="1"/>
<ellipse transform="matrix(0.9964 -8.515201e-02 8.515201e-02 0.9964 -2.8101 2.0768)" class="st1" cx="22.9" cy="34" rx="0.9" ry="1"/>
<ellipse transform="matrix(0.9964 -8.515201e-02 8.515201e-02 0.9964 -2.8288 1.8222)" class="st1" cx="19.9" cy="34.1" rx="0.9" ry="1"/>
<ellipse transform="matrix(0.9964 -8.515201e-02 8.515201e-02 0.9964 -2.8475 1.5677)" class="st1" cx="17" cy="34.2" rx="0.9" ry="1"/>
<rect x="40.3" class="st1" width="0.8" height="28.8"/>
</svg>
