<?xml version="1.0" encoding="utf-8"?>
<!-- Generator: Adobe Illustrator 19.2.0, SVG Export Plug-In . SVG Version: 6.00 Build 0)  -->
<svg version="1.1" id="Layer_1" xmlns="http://www.w3.org/2000/svg" xmlns:xlink="http://www.w3.org/1999/xlink" x="0px" y="0px"
	 viewBox="0 0 180 206.5" style="enable-background:new 0 0 180 206.5;" xml:space="preserve">
<style type="text/css">
	.st0{fill:#483F31;}
	.st1{fill:#00A6BD;}
	.st2{fill:#FF808E;}
	.st3{fill:#F7F9FA;}
	.st4{fill:#80AFE2;}
	.st5{fill:#FAE071;}
</style>
<g>
	<circle class="st0" cx="5.9" cy="68.8" r="5.9"/>
	<rect x="2.6" y="72" class="st0" width="6.5" height="134.5"/>
	<circle class="st0" cx="174.1" cy="68.8" r="5.9"/>
	<rect x="170.9" y="72" class="st0" width="6.5" height="134.5"/>
	<rect x="5.9" y="97.5" class="st0" width="165" height="4"/>
	<rect x="5.9" y="176.3" class="st0" width="165" height="4"/>
	<path class="st1" d="M9.1,160.8c0,0,62.4,0.5,73.1,0c0,0,84,1.2,88.6,2l0.4,9.2l-0.4,4.2H9.1V160.8z"/>
	<path class="st2" d="M9.1,160.8c0,0-1.4-6.8,4.1-7.5c0,0,11.5-3.8,24.5-3.2c0,0,17.5,1.2,19.2,7.2c0,0,1.5,1.2,0,3.5
		C57,160.8,11.2,162.3,9.1,160.8z"/>
	<rect x="23.4" y="99.7" class="st0" width="5.2" height="78.8"/>
	<rect x="42.4" y="100.1" class="st0" width="5.2" height="78.8"/>
	<rect x="60.1" y="100.1" class="st0" width="5.2" height="78.8"/>
	<rect x="79.5" y="100.1" class="st0" width="5.2" height="78.8"/>
	<rect x="96.9" y="100.1" class="st0" width="5.2" height="78.8"/>
	<rect x="116.2" y="100.1" class="st0" width="5.2" height="78.8"/>
	<rect x="133.6" y="100.1" class="st0" width="5.2" height="78.8"/>
	<rect x="151.4" y="100.1" class="st0" width="5.2" height="78.8"/>
</g>
<path class="st3" d="M20.2,97.5L21.8,30c0,0,1.8-31.2,27.2-30c0,0,24.2,1,26.5,26.8c0,0,16.2,0.2,18.8,11.3l-4.1,0.2
	c0,0,0.8-7.3-14.4-8.8c0,0-0.2,1-2.2,1.8c0,0-2.8-0.5-2.8-1.5c0,0-10.5,1-10.6,5.8l-1.4,3.8l-5-0.8c0,0,6.4-12.6,18-11.5
	c0,0,1-17.8-19.5-23.5c0,0-18.5-4.8-26.2,18.2c0,0-2,2-1.5,29.3v46.5H20.2z"/>
<polygon class="st4" points="57.9,22.6 61,32.2 71,32.2 62.9,38.1 66,47.7 57.9,41.8 49.7,47.7 52.8,38.1 44.7,32.2 54.8,32.2 "/>
<path class="st5" d="M85.6,24.1c0,0,8.8,9.1,1.1,16.4c0,0-2.2,4-11.8,2.8c0,0,9.5,7.5,17.4-1C92.3,42.2,100.7,28.5,85.6,24.1z"/>
</svg>
