<?xml version="1.0" encoding="utf-8"?>
<!-- Generator: Adobe Illustrator 19.2.0, SVG Export Plug-In . SVG Version: 6.00 Build 0)  -->
<svg version="1.1" id="Layer_1" xmlns="http://www.w3.org/2000/svg" xmlns:xlink="http://www.w3.org/1999/xlink" x="0px" y="0px"
	 viewBox="0 0 70.6 125.6" style="enable-background:new 0 0 70.6 125.6;" xml:space="preserve">
<style type="text/css">
	.st0{fill:#E3D5D8;enable-background:new    ;}
	.st1{fill:#DADDD1;}
	.st2{fill:#C0C2C4;enable-background:new    ;}
	.st3{fill:#E6E0CF;enable-background:new    ;}
	.st4{fill:#ADBAC1;enable-background:new    ;}
	.st5{fill:#EBE8F4;}
</style>
<path class="st0" d="M66.6,44.2H4c-2.2,0-4-1.8-4-4V4c0-2.2,1.8-4,4-4h62.6c2.2,0,4,1.8,4,4v36.2C70.6,42.4,68.8,44.2,66.6,44.2z"/>
<path class="st1" d="M61.1,82.8H9.7c-4.2,0-7.6-3.4-7.6-7.6v-5.6c0-4.2,3.4-7.6,7.6-7.6h51.4c4.2,0,7.6,3.4,7.6,7.6v5.6
	C68.7,79.4,65.3,82.8,61.1,82.8z"/>
<path class="st2" d="M12.5,82.8c0,0,5.6,39.3-3.6,42.7h50.3c0,0-7.2-32.5-2.7-42.7H12.5z"/>
<path class="st3" d="M10.9,62c0,0-20.2-43.8,24.4-54.7c0,0,32,1,28.2,42c0,0-2.1,12.3-2.4,12.6H10.9z"/>
<circle class="st4" cx="35.4" cy="39.8" r="16.8"/>
<path class="st5" d="M69.1,5.5H1.6C0.7,5.5,0,4.8,0,3.9l0-2.4C0,0.7,0.7,0,1.6,0l67.5,0c0.9,0,1.6,0.7,1.6,1.6v2.4
	C70.6,4.8,69.9,5.5,69.1,5.5z"/>
</svg>
