<?xml version="1.0" encoding="utf-8"?>
<!-- Generator: Adobe Illustrator 19.2.0, SVG Export Plug-In . SVG Version: 6.00 Build 0)  -->
<svg version="1.1" id="Layer_1" xmlns="http://www.w3.org/2000/svg" xmlns:xlink="http://www.w3.org/1999/xlink" x="0px" y="0px"
	 viewBox="0 0 64.5 104.2" style="enable-background:new 0 0 64.5 104.2;" xml:space="preserve">
<style type="text/css">
	.st0{fill:#DED4FE;}
	.st1{fill:#68AAFE;}
</style>
<g>
	<path class="st0" d="M0.8,21.1c0,0-3-4.3,2.6-4.5h59.1c0,0,3.7,0.9,1.1,4.5c0,0,1.7,1.7-1.1,4.1c0,0-1.5,9.3-9.3,10.6H39.8
		c0,0-4.3,12.1-4.5,14.9v38.2l7.1,11.4v3.9H21.7l-0.6-3.7L28,88.2l-0.2-37.3l-3.9-15.7l-11,0.9c0,0-5.4-0.4-7.8-5l-3-5.8
		C2.1,25.2-0.7,24.4,0.8,21.1z"/>
	<path class="st1" d="M27.6,0.5c-1.1,0-2.1,0.8-2.3,1.9h-1.9V1c0-0.6-0.5-1-1-1c-0.6,0-1,0.5-1,1v1.4h-1.7c0-1.3-1.1-2.4-2.4-2.4
		s-2.4,1.1-2.4,2.4s1.1,2.4,2.4,2.4c0.5,0,1-0.2,1.4-0.4h2.7v0.9c-0.9,0-1.7,0.8-1.7,1.7v6.9c0,0.9,0.8,1.7,1.7,1.7h2.2
		c0.9,0,1.7-0.8,1.7-1.7V6.9c0-0.9-0.8-1.7-1.7-1.7h-0.1V4.3h2.4c0.4,0.6,1.1,0.9,1.9,0.9c1.3,0,2.4-1.1,2.4-2.4
		C29.9,1.5,28.9,0.5,27.6,0.5z"/>
	<path class="st1" d="M46.5,0.5c-1.1,0-2.1,0.8-2.3,1.9h-1.9V1c0-0.6-0.5-1-1-1s-1,0.5-1,1v1.4h-1.7c0-1.3-1.1-2.4-2.4-2.4
		c-1.3,0-2.4,1.1-2.4,2.4s1.1,2.4,2.4,2.4c0.5,0,1-0.2,1.4-0.4h2.7v0.9c-0.9,0-1.7,0.8-1.7,1.7v6.9c0,0.9,0.8,1.7,1.7,1.7h2.2
		c0.9,0,1.7-0.8,1.7-1.7V6.9c0-0.9-0.8-1.7-1.7-1.7h-0.1V4.3h2.4c0.4,0.6,1.1,0.9,1.9,0.9c1.3,0,2.4-1.1,2.4-2.4
		C48.9,1.5,47.8,0.5,46.5,0.5z"/>
</g>
</svg>
