<?xml version="1.0" encoding="utf-8"?>
<!-- Generator: Adobe Illustrator 19.2.0, SVG Export Plug-In . SVG Version: 6.00 Build 0)  -->
<svg version="1.1" id="Layer_1" xmlns="http://www.w3.org/2000/svg" xmlns:xlink="http://www.w3.org/1999/xlink" x="0px" y="0px"
	 viewBox="0 0 89.3 173" style="enable-background:new 0 0 89.3 173;" xml:space="preserve">
<style type="text/css">
	.st0{fill:#E58670;}
	.st1{fill:#225B6D;enable-background:new    ;}
	.st2{fill:#225B6D;}
	.st3{fill:#FFFFFF;enable-background:new    ;}
</style>
<g>
	<path class="st0" d="M77.3,168.7H12c-6.6,0-12-5.4-12-12V12C0,5.4,5.4,0,12,0h65.3c6.6,0,12,5.4,12,12v144.7
		C89.3,163.3,83.9,168.7,77.3,168.7z"/>
	<rect x="0" y="82.6" class="st1" width="89.3" height="3.8"/>
	<rect x="68" y="168.7" class="st2" width="11" height="4.3"/>
	<rect x="14.2" y="168.7" class="st2" width="11" height="4.3"/>
	<path class="st3" d="M9.5,56.7L9.5,56.7c-0.9,0-1.6-0.7-1.6-1.6V39c0-0.9,0.7-1.6,1.6-1.6h0c0.9,0,1.6,0.7,1.6,1.6v16
		C11.1,55.9,10.4,56.7,9.5,56.7z"/>
	<path class="st3" d="M9.5,129.2L9.5,129.2c-0.9,0-1.6-0.7-1.6-1.6v-16c0-0.9,0.7-1.6,1.6-1.6h0c0.9,0,1.6,0.7,1.6,1.6v16
		C11.1,128.4,10.4,129.2,9.5,129.2z"/>
</g>
</svg>
