<?xml version="1.0" encoding="utf-8"?>
<!-- Generator: Adobe Illustrator 19.2.0, SVG Export Plug-In . SVG Version: 6.00 Build 0)  -->
<svg version="1.1" id="Layer_1" xmlns="http://www.w3.org/2000/svg" xmlns:xlink="http://www.w3.org/1999/xlink" x="0px" y="0px"
	 viewBox="0 0 8.2 33.6" style="enable-background:new 0 0 8.2 33.6;" xml:space="preserve">
<style type="text/css">
	.st0{fill:#9DC3A4;}
	.st1{fill:#E48771;}
</style>
<g>
	<rect x="2.8" class="st0" width="2.4" height="6.4"/>
	<path class="st1" d="M8.1,29.3c0,0,0.1-1.9-3.5-4.7V6.4h-1L3.3,24.6c0,0-3.7,2.4-3.3,5.1c0,0,0.4,4.4,4.3,3.9
		C4.3,33.7,8.5,32.9,8.1,29.3z M3,30.6c-0.3,0.1-0.6-0.1-0.7-0.3c-0.1-0.3,0.1-0.6,0.3-0.7c0.3-0.1,0.6,0.1,0.7,0.3S3.3,30.5,3,30.6
		z M2.8,28.3c-0.3,0-0.6-0.3-0.6-0.6s0.3-0.6,0.6-0.6s0.6,0.3,0.6,0.6C3.4,28.1,3.2,28.3,2.8,28.3z M5.4,30.6
		c-0.3,0.1-0.6-0.1-0.7-0.3s0.1-0.6,0.3-0.7c0.3-0.1,0.6,0.1,0.7,0.3C5.9,30.2,5.7,30.5,5.4,30.6z M5.2,28.3c-0.3,0-0.6-0.3-0.6-0.6
		s0.3-0.6,0.6-0.6s0.6,0.3,0.6,0.6C5.8,28.1,5.6,28.3,5.2,28.3z"/>
</g>
</svg>
