<?xml version="1.0" encoding="utf-8"?>
<!-- Generator: Adobe Illustrator 19.2.0, SVG Export Plug-In . SVG Version: 6.00 Build 0)  -->
<svg version="1.1" id="Layer_1" xmlns="http://www.w3.org/2000/svg" xmlns:xlink="http://www.w3.org/1999/xlink" x="0px" y="0px"
	 viewBox="0 0 9.5 33.7" style="enable-background:new 0 0 9.5 33.7;" xml:space="preserve">
<style type="text/css">
	.st0{fill:#9DC3A4;}
	.st1{fill:#E48771;}
</style>
<g>
	<rect x="3.5" class="st0" width="2.4" height="6.4"/>
	<path class="st1" d="M5.2,24.6L5.1,6.4H4v18.2l-3.3,2.8c0,0-0.9,6.3-0.6,6.3c0.2,0.1,9.4,0,9.4,0v-5.8L5.2,24.6z M1.8,33H1.3v-3.2
		h0.5V33z M3,33H2.5v-3.2H3V33z M4.2,33H3.7v-3.2h0.5V33z M5.3,33H4.8v-3.2h0.5V33z M6.5,33H6v-3.2h0.5V33z M7.6,33H7.1v-3.2h0.5V33
		z M8.8,33H8.3v-3.2h0.5V33z"/>
</g>
</svg>
