<?xml version="1.0" encoding="utf-8"?>
<!-- Generator: Adobe Illustrator 19.2.0, SVG Export Plug-In . SVG Version: 6.00 Build 0)  -->
<svg version="1.1" id="Layer_1" xmlns="http://www.w3.org/2000/svg" xmlns:xlink="http://www.w3.org/1999/xlink" x="0px" y="0px"
	 viewBox="0 0 456 101.2" style="enable-background:new 0 0 456 101.2;" xml:space="preserve">
<style type="text/css">
	.st0{fill:#ADA692;}
	.st1{fill:#58585B;}
	.st2{fill:#6A6D6F;}
	.st3{fill:none;stroke:#68707A;stroke-width:2;stroke-miterlimit:10;}
	.st4{fill:#7F7E81;}
</style>
<g>
	<rect x="7.3" y="18.4" class="st0" width="441.3" height="82.8"/>
	<rect y="13.5" class="st1" width="456" height="9.3"/>
	<rect x="220.9" y="5.1" class="st2" width="19.3" height="5.2"/>
	<path class="st3" d="M209.4,10.2c0,0-1-8.6,5.4-8.6l8.1-0.2"/>
	<path class="st3" d="M250.4,10c0,0,0.8-8.6-4.2-8.6L240,1.2"/>
	<line class="st3" x1="230.1" y1="0" x2="230.6" y2="11.7"/>
	<rect x="206.6" y="10.2" class="st4" width="48" height="3"/>
	<rect x="277.3" y="5.1" class="st2" width="19.3" height="5.2"/>
	<path class="st3" d="M265.8,10.2c0,0-1-8.6,5.4-8.6l8.1-0.2"/>
	<path class="st3" d="M306.8,10c0,0,0.8-8.6-4.2-8.6l-6.2-0.2"/>
	<line class="st3" x1="286.4" y1="0" x2="286.9" y2="11.7"/>
	<rect x="262.9" y="10.2" class="st4" width="48" height="3"/>
</g>
</svg>
