<?xml version="1.0" encoding="utf-8"?>
<!-- Generator: Adobe Illustrator 19.2.0, SVG Export Plug-In . SVG Version: 6.00 Build 0)  -->
<svg version="1.1" id="Layer_1" xmlns="http://www.w3.org/2000/svg" xmlns:xlink="http://www.w3.org/1999/xlink" x="0px" y="0px"
	 viewBox="0 0 56.6 29.8" style="enable-background:new 0 0 56.6 29.8;" xml:space="preserve">
<style type="text/css">
	.st0{fill:#E9DDCE;enable-background:new    ;}
	.st1{fill:#065F6B;enable-background:new    ;}
	.st2{fill:#065F6B;}
	.st3{fill:none;stroke:#065F6B;stroke-miterlimit:10;}
</style>
<g>
	<path class="st0" d="M34.6,29.3H8.1c-2.2,0-4-1.8-4-4v-9.6c0-2.2,1.8-4,4-4h26.4c2.2,0,4,1.8,4,4v9.6
		C38.6,27.5,36.8,29.3,34.6,29.3z"/>
	<rect x="4.1" y="16.9" class="st1" width="34.4" height="5.2"/>
	<path class="st2" d="M4.1,14.9c-0.9,0-4.1,0-4.1,0l4.1,3.5V14.9z"/>
	<path class="st2" d="M38.6,14.9c0.9,0,4.1,0,4.1,0l-4.1,2.6V14.9z"/>
	<path class="st2" d="M25.2,2.9L25.2,2.9c0-2.5-3.3-2.9-3.3-2.9c-3,0.1-3.6,2.6-3.6,2.6h1.8c-0.1-1.3,1.8-1.1,1.8-1.1
		c1.1,0,1.6,0.8,1.8,1.2c-0.9-0.1-1.5-0.1-1.5-0.1C6,2.6,4.7,11.8,4.7,11.8h34.4C37,5.8,29.5,3.6,25.2,2.9z"/>
	<circle class="st2" cx="54" cy="18.4" r="2.1"/>
	<path class="st3" d="M54.9,20.4c0,0,4.1,7.1-3,9c0,0-10.9,0-9.2-2.8c0,0,3.7-2.2-1-1.7h-3.1"/>
</g>
</svg>
