<?xml version="1.0" encoding="utf-8"?>
<!-- Generator: Adobe Illustrator 19.2.0, SVG Export Plug-In . SVG Version: 6.00 Build 0)  -->
<svg version="1.1" id="Layer_1" xmlns="http://www.w3.org/2000/svg" xmlns:xlink="http://www.w3.org/1999/xlink" x="0px" y="0px"
	 viewBox="0 0 32.3 15.8" style="enable-background:new 0 0 32.3 15.8;" xml:space="preserve">
<style type="text/css">
	.st0{fill:#003F32;}
	.st1{fill:#4A638C;}
</style>
<path class="st0" d="M24.4,15.8H7.9C3.5,15.8,0,12.2,0,7.9l0,0C0,3.5,3.6,0,7.9,0h16.5c4.4,0,7.9,3.6,7.9,7.9l0,0
	C32.4,12.2,28.8,15.8,24.4,15.8z"/>
<path class="st1" d="M22.3,13.6H10.1C7,13.6,4.4,11,4.4,7.9l0,0c0-3.1,2.6-5.7,5.7-5.7h12.2c3.1,0,5.7,2.6,5.7,5.7l0,0
	C28,11,25.4,13.6,22.3,13.6z"/>
</svg>
