<?xml version="1.0" encoding="utf-8"?>
<!-- Generator: Adobe Illustrator 19.2.0, SVG Export Plug-In . SVG Version: 6.00 Build 0)  -->
<svg version="1.1" id="Layer_1" xmlns="http://www.w3.org/2000/svg" xmlns:xlink="http://www.w3.org/1999/xlink" x="0px" y="0px"
	 viewBox="0 0 28.1 48" style="enable-background:new 0 0 28.1 48;" xml:space="preserve">
<style type="text/css">
	.st0{fill:#48170E;}
	.st1{fill:#575051;}
</style>
<path class="st0" d="M16.1,43.1H12c-6.6,0-12-5.4-12-12V12C0,5.4,5.4,0,12,0h4.1c6.6,0,12,5.4,12,12v19.1
	C28.1,37.7,22.7,43.1,16.1,43.1z"/>
<path class="st1" d="M18.8,48H8.2c-1.3,0-2.4-1.1-2.4-2.4l0,0c0-1.3,1.1-2.4,2.4-2.4h10.6c1.3,0,2.4,1.1,2.4,2.4l0,0
	C21.2,46.9,20.1,48,18.8,48z"/>
</svg>
