<?xml version="1.0" encoding="utf-8"?>
<!-- Generator: Adobe Illustrator 19.2.0, SVG Export Plug-In . SVG Version: 6.00 Build 0)  -->
<svg version="1.1" id="Layer_1" xmlns="http://www.w3.org/2000/svg" xmlns:xlink="http://www.w3.org/1999/xlink" x="0px" y="0px"
	 viewBox="0 0 39 70.5" style="enable-background:new 0 0 39 70.5;" xml:space="preserve">
<style type="text/css">
	.st0{fill:#EF454A;}
	.st1{fill:#83746A;}
	.st2{fill:#48170E;}
</style>
<path class="st0" d="M27,60.9H12c-6.6,0-12-5.4-12-12V12C0,5.4,5.4,0,12,0h15c6.6,0,12,5.4,12,12v36.9C39,55.5,33.6,60.9,27,60.9z"
	/>
<path class="st1" d="M28.2,18.8H10.8c-2.8,0-5.1-2.3-5.1-5.1l0,0c0-2.8,2.3-5.1,5.1-5.1h17.3c2.8,0,5.1,2.3,5.1,5.1l0,0
	C33.3,16.5,31,18.8,28.2,18.8z"/>
<path class="st1" d="M28.2,35.6H10.8c-2.8,0-5.1-2.3-5.1-5.1l0,0c0-2.8,2.3-5.1,5.1-5.1h17.3c2.8,0,5.1,2.3,5.1,5.1l0,0
	C33.3,33.3,31,35.6,28.2,35.6z"/>
<path class="st1" d="M28.2,50.9H10.8c-2.8,0-5.1-2.3-5.1-5.1l0,0c0-2.8,2.3-5.1,5.1-5.1h17.3c2.8,0,5.1,2.3,5.1,5.1l0,0
	C33.3,48.6,31,50.9,28.2,50.9z"/>
<rect y="58.8" class="st2" width="38" height="11.7"/>
</svg>
