<?xml version="1.0" encoding="utf-8"?>
<!-- Generator: Adobe Illustrator 19.2.0, SVG Export Plug-In . SVG Version: 6.00 Build 0)  -->
<svg version="1.1" id="Layer_1" xmlns="http://www.w3.org/2000/svg" xmlns:xlink="http://www.w3.org/1999/xlink" x="0px" y="0px"
	 viewBox="0 0 115 87.2" style="enable-background:new 0 0 115 87.2;" xml:space="preserve">
<style type="text/css">
	.st0{fill:#83746A;}
	.st1{fill:#941550;stroke:#19A4A5;stroke-width:3;stroke-miterlimit:10;}
	.st2{fill:#656668;}
</style>
<rect class="st0" width="115" height="9.6"/>
<rect x="9.8" y="7.7" class="st0" width="96.3" height="78.4"/>
<path class="st1" d="M27.7,87.2V30.7c0,0,4.9-12.9,33.8-13.9c0,0,24.1,1.6,28.9,16.3v54"/>
<path class="st2" d="M23.3,22.1H11.8c-1.1,0-2-0.9-2-2l0,0c0-1.1,0.9-2,2-2h11.5c1.1,0,2,0.9,2,2l0,0C25.3,21.2,24.4,22.1,23.3,22.1
	z"/>
<path class="st2" d="M23.3,63.9H11.8c-1.1,0-2-0.9-2-2l0,0c0-1.1,0.9-2,2-2h11.5c1.1,0,2,0.9,2,2l0,0C25.3,63,24.4,63.9,23.3,63.9z"
	/>
<path class="st2" d="M36.1,13H24.6c-1.1,0-2-0.9-2-2l0,0c0-1.1,0.9-2,2-2h11.5c1.1,0,2,0.9,2,2l0,0C38.2,12.1,37.3,13,36.1,13z"/>
<path class="st2" d="M57.3,9.1H45.8c-1.1,0-2-0.9-2-2l0,0c0-1.1,0.9-2,2-2h11.5c1.1,0,2,0.9,2,2l0,0C59.3,8.2,58.4,9.1,57.3,9.1z"/>
<path class="st2" d="M84.4,15H72.9c-1.1,0-2-0.9-2-2l0,0c0-1.1,0.9-2,2-2h11.5c1.1,0,2,0.9,2,2l0,0C86.5,14.1,85.6,15,84.4,15z"/>
<path class="st2" d="M101.8,63.9h-7.4c-1.1,0-2-0.9-2-2l0,0c0-1.1,0.9-2,2-2h7.4c1.1,0,2,0.9,2,2l0,0C103.9,63,103,63.9,101.8,63.9z
	"/>
<path class="st2" d="M103.9,7.1H92.4c-1.1,0-2-0.9-2-2l0,0c0-1.1,0.9-2,2-2h11.5c1.1,0,2,0.9,2,2l0,0C105.9,6.2,105,7.1,103.9,7.1z"
	/>
<path class="st2" d="M103.9,28.2H92.4c-1.1,0-2-0.9-2-2l0,0c0-1.1,0.9-2,2-2h11.5c1.1,0,2,0.9,2,2l0,0
	C105.9,27.3,105,28.2,103.9,28.2z"/>
</svg>
