<?xml version="1.0" encoding="utf-8"?>
<!-- Generator: Adobe Illustrator 19.2.0, SVG Export Plug-In . SVG Version: 6.00 Build 0)  -->
<svg version="1.1" id="Layer_1" xmlns="http://www.w3.org/2000/svg" xmlns:xlink="http://www.w3.org/1999/xlink" x="0px" y="0px"
	 viewBox="0 0 223.5 90" style="enable-background:new 0 0 223.5 90;" xml:space="preserve">
<style type="text/css">
	.st0{fill:#A67B69;}
	.st1{fill:#8E7E79;}
	.st2{fill:#310400;}
	.st3{fill:#665B53;}
	.st4{fill:#545456;}
</style>
<path class="st0" d="M201.2,57.3h-172c-6.6,0-12-5.4-12-12V12c0-6.6,5.4-12,12-12h172c6.6,0,12,5.4,12,12v33.3
	C213.2,51.9,207.8,57.3,201.2,57.3z"/>
<path class="st1" d="M216.1,72.1H7.4c-4.1,0-7.4-3.3-7.4-7.4l0,0c0-4.1,3.3-7.4,7.4-7.4h208.7c4.1,0,7.4,3.3,7.4,7.4l0,0
	C223.5,68.8,220.1,72.1,216.1,72.1z"/>
<path class="st2" d="M10.2,71.2L10.2,71.2C4.6,71.2,0,66.6,0,61V35.1c0-5.6,4.6-10.2,10.2-10.2l0,0c5.6,0,10.2,4.6,10.2,10.2v25.8
	C20.4,66.6,15.8,71.2,10.2,71.2z"/>
<path class="st3" d="M214.1,90H9.4C4.2,90,0,85.8,0,80.6l0,0c0-5.2,4.2-9.4,9.4-9.4H214c5.2,0,9.4,4.2,9.4,9.4l0,0
	C223.5,85.8,219.2,90,214.1,90z"/>
<circle class="st2" cx="48.7" cy="24.9" r="3.8"/>
<circle class="st2" cx="94.7" cy="24.9" r="3.8"/>
<circle class="st2" cx="140.8" cy="24.9" r="3.8"/>
<circle class="st2" cx="180.4" cy="24.9" r="3.8"/>
<path class="st4" d="M213.2,71.2L213.2,71.2c-5.6,0-10.2-4.6-10.2-10.2V35.1c0-5.6,4.6-10.2,10.2-10.2l0,0c5.6,0,10.2,4.6,10.2,10.2
	v25.8C223.5,66.6,218.9,71.2,213.2,71.2z"/>
<path class="st4" d="M10.2,71.2L10.2,71.2C4.6,71.2,0,66.6,0,61V35.1c0-5.6,4.6-10.2,10.2-10.2l0,0c5.6,0,10.2,4.6,10.2,10.2v25.8
	C20.4,66.6,15.8,71.2,10.2,71.2z"/>
</svg>
