<?xml version="1.0" encoding="utf-8"?>
<!-- Generator: Adobe Illustrator 19.2.0, SVG Export Plug-In . SVG Version: 6.00 Build 0)  -->
<svg version="1.1" id="Layer_1" xmlns="http://www.w3.org/2000/svg" xmlns:xlink="http://www.w3.org/1999/xlink" x="0px" y="0px"
	 viewBox="0 0 93.3 39.3" style="enable-background:new 0 0 93.3 39.3;" xml:space="preserve">
<style type="text/css">
	.st0{fill:#AD9306;}
	.st1{fill:#6F533A;}
</style>
<path class="st0" d="M90.9,6.2H2.4C1.1,6.2,0,5.1,0,3.8V2.4C0,1.1,1.1,0,2.4,0h88.5c1.3,0,2.4,1.1,2.4,2.4v1.4
	C93.3,5.1,92.2,6.2,90.9,6.2z"/>
<path class="st1" d="M78.7,13.2H14.6c-1.3,0-2.4-1.1-2.4-2.4V9.4c0-1.3,1.1-2.4,2.4-2.4h64.1c1.3,0,2.4,1.1,2.4,2.4v1.4
	C81.1,12.1,80,13.2,78.7,13.2z"/>
<path class="st1" d="M20.6,39.3L20.6,39.3c-1.5,0-2.7-1.2-2.7-2.7V12.1c0-1.5,1.2-2.7,2.7-2.7l0,0c1.5,0,2.7,1.2,2.7,2.7v24.5
	C23.3,38.1,22.1,39.3,20.6,39.3z"/>
<path class="st1" d="M73.4,39.3L73.4,39.3c-1.5,0-2.7-1.2-2.7-2.7V12.1c0-1.5,1.2-2.7,2.7-2.7l0,0c1.5,0,2.7,1.2,2.7,2.7v24.5
	C76.1,38.1,74.9,39.3,73.4,39.3z"/>
</svg>
