<?xml version="1.0" encoding="utf-8"?>
<!-- Generator: Adobe Illustrator 19.2.0, SVG Export Plug-In . SVG Version: 6.00 Build 0)  -->
<svg version="1.1" id="Layer_1" xmlns="http://www.w3.org/2000/svg" xmlns:xlink="http://www.w3.org/1999/xlink" x="0px" y="0px"
	 viewBox="0 0 38.2 42.3" style="enable-background:new 0 0 38.2 42.3;" xml:space="preserve">
<style type="text/css">
	.st0{fill:#FDEB00;}
	.st1{fill:#EE2648;}
	.st2{fill:#48170E;}
</style>
<path class="st0" d="M12.2,7.7l-4-2.8c0,0-5.6,14.9,0,22.9s11.2,4.4,15.3,2.4c0,0,7.2-3.2,3.6-15.3L20.7,0l-2,4.8L15.5,0L12.2,7.7z"
	/>
<path class="st1" d="M16.9,12.6l3,3.9v-1.9c0,0,5.6,7.3,0,10.9c0,0-10-0.2-8.8-9l3.6,2.5L16.9,12.6z"/>
<path class="st2" d="M34.4,42.3H3.8c-2.1,0-3.8-1.7-3.8-3.8l0,0c0-2.1,1.7-3.8,3.8-3.8h30.6c2.1,0,3.8,1.7,3.8,3.8l0,0
	C38.1,40.6,36.4,42.3,34.4,42.3z"/>
</svg>
