<?xml version="1.0" encoding="utf-8"?>
<!-- Generator: Adobe Illustrator 19.2.0, SVG Export Plug-In . SVG Version: 6.00 Build 0)  -->
<svg version="1.1" id="Layer_1" xmlns="http://www.w3.org/2000/svg" xmlns:xlink="http://www.w3.org/1999/xlink" x="0px" y="0px"
	 viewBox="0 0 2091.2 1084.5" style="enable-background:new 0 0 2091.2 1084.5;" xml:space="preserve">
<style type="text/css">
	.st0{fill:#E5C287;}
	.st1{fill:#2D5871;}
	.st2{fill:#199FA0;}
	.st3{fill:#FFFFFF;}
	.st4{fill:#231F20;}
	.st5{fill:#199FA0;stroke:#FFFFFF;stroke-miterlimit:10;}
	.st6{fill:#320C02;}
</style>
<rect class="st0" width="2091.2" height="1084.5"/>
<rect x="198.6" y="91.5" class="st1" width="1704.1" height="936.3"/>
<rect x="248.2" y="146.4" class="st2" width="1603" height="826.3"/>
<polygon class="st3" points="1548,146.4 1750.1,146.4 1101.1,974.5 923.8,974.5 "/>
<polygon class="st3" points="1285.6,146.4 1386.6,146.4 813.9,974.5 703.9,974.5 "/>
<rect x="624.1" y="1024.2" class="st4" width="844.1" height="60.3"/>
<rect x="248.2" y="899.7" class="st5" width="73" height="73"/>
<ellipse transform="matrix(3.255683e-02 -0.9995 0.9995 3.255683e-02 -668.1893 1164.7806)" class="st6" cx="267.6" cy="927.5" rx="8.7" ry="6.6"/>
<ellipse transform="matrix(3.255683e-02 -0.9995 0.9995 3.255683e-02 -662.0292 1164.881)" class="st3" cx="270.7" cy="924.4" rx="3.1" ry="3.1"/>
<ellipse transform="matrix(0.7298 -0.6837 0.6837 0.7298 -564.3032 433.6728)" class="st3" cx="266.4" cy="930.7" rx="1.4" ry="1.4"/>
<ellipse transform="matrix(3.255683e-02 -0.9995 0.9995 3.255683e-02 -635.2963 1198.7626)" class="st6" cx="301.6" cy="927.5" rx="8.7" ry="6.6"/>
<ellipse transform="matrix(3.255683e-02 -0.9995 0.9995 3.255683e-02 -629.1362 1198.8629)" class="st3" cx="304.7" cy="924.4" rx="3.1" ry="3.1"/>
<ellipse transform="matrix(0.7298 -0.6837 0.6837 0.7298 -554.3705 458.7552)" class="st3" cx="303.1" cy="930.6" rx="1.4" ry="1.4"/>
<circle class="st5" cx="284.7" cy="952.1" r="6.4"/>
<path class="st5" d="M309,899.7c2.5-2.6,12.2-16.1,12.2-16.1v16.1H309z"/>
<path class="st5" d="M262.6,899.7c-2.9-2.6-14.4-16.1-14.4-16.1v16.1H262.6z"/>
</svg>
