<?xml version="1.0" encoding="utf-8"?>
<!-- Generator: Adobe Illustrator 19.2.0, SVG Export Plug-In . SVG Version: 6.00 Build 0)  -->
<svg version="1.1" id="Layer_1" xmlns="http://www.w3.org/2000/svg" xmlns:xlink="http://www.w3.org/1999/xlink" x="0px" y="0px"
	 viewBox="0 0 2091.2 1084.5" style="enable-background:new 0 0 2091.2 1084.5;" xml:space="preserve">
<style type="text/css">
	.st0{fill:#E5C287;}
	.st1{fill:none;stroke:#FFFFFF;stroke-miterlimit:10;}
	.st2{fill:#2D5871;}
	.st3{fill:#199FA0;}
	.st4{fill:#FFFFFF;}
	.st5{fill:#231F20;}
	.st6{fill:none;stroke:#000000;stroke-miterlimit:10;}
	.st7{fill:#199FA0;stroke:#FFFFFF;stroke-miterlimit:10;}
	.st8{fill:#320C02;}
</style>
<rect class="st0" width="2091.2" height="1084.5"/>
<polyline class="st1" points="188.4,1036.3 214,1055.2 212.7,1074 203.6,1074 "/>
<polyline class="st0" points="322.9,971.4 329.1,967.3 329.1,894 "/>
<rect x="200.2" y="90.1" class="st2" width="1704.1" height="936.3"/>
<rect x="249.9" y="145.1" class="st3" width="1603" height="826.3"/>
<polygon class="st4" points="1549.7,145.1 1751.8,145.1 1102.8,973.2 925.5,973.2 "/>
<polygon class="st4" points="1287.2,145.1 1388.3,145.1 815.5,973.2 705.6,973.2 "/>
<rect x="625.8" y="1022.8" class="st5" width="844.1" height="60.3"/>
<line class="st6" x1="182" y1="934.9" x2="218.8" y2="904.3"/>
<line class="st6" x1="200.4" y1="951.7" x2="237.2" y2="921.1"/>
<line class="st6" x1="180.4" y1="951.7" x2="217.2" y2="921.1"/>
<g>
	<rect x="151.9" y="963.3" class="st7" width="73" height="73"/>
	
		<ellipse transform="matrix(3.255683e-02 -0.9995 0.9995 3.255683e-02 -824.946 1129.9988)" class="st8" cx="171.2" cy="991.1" rx="8.7" ry="6.6"/>
	
		<ellipse transform="matrix(3.255683e-02 -0.9995 0.9995 3.255683e-02 -818.7859 1130.099)" class="st4" cx="174.4" cy="988" rx="3.1" ry="3.1"/>
	
		<ellipse transform="matrix(0.7298 -0.6837 0.6837 0.7298 -633.8119 384.9836)" class="st4" cx="170.1" cy="994.2" rx="1.4" ry="1.4"/>
	
		<ellipse transform="matrix(3.255683e-02 -0.9995 0.9995 3.255683e-02 -792.053 1163.9807)" class="st8" cx="205.2" cy="991.1" rx="8.7" ry="6.6"/>
	
		<ellipse transform="matrix(3.255683e-02 -0.9995 0.9995 3.255683e-02 -785.8929 1164.0811)" class="st4" cx="208.4" cy="988" rx="3.1" ry="3.1"/>
	
		<ellipse transform="matrix(0.7298 -0.6837 0.6837 0.7298 -623.8792 410.0659)" class="st4" cx="206.8" cy="994.2" rx="1.4" ry="1.4"/>
	<circle class="st7" cx="188.4" cy="1015.7" r="6.4"/>
	<path class="st7" d="M212.7,963.3c2.5-2.6,12.2-16.1,12.2-16.1v16.1H212.7z"/>
	<path class="st7" d="M166.3,963.3c-2.9-2.6-14.4-16.1-14.4-16.1v16.1H166.3z"/>
</g>
<rect x="249.9" y="898.4" class="st5" width="73" height="73"/>
<polyline class="st1" points="224.9,1003.6 245.3,967.3 265.8,971.4 275.1,967.3 "/>
</svg>
