<?xml version="1.0" encoding="utf-8"?>
<!-- Generator: Adobe Illustrator 19.2.0, SVG Export Plug-In . SVG Version: 6.00 Build 0)  -->
<svg version="1.1" id="Layer_1" xmlns="http://www.w3.org/2000/svg" xmlns:xlink="http://www.w3.org/1999/xlink" x="0px" y="0px"
	 viewBox="0 0 2119.2 1092.6" style="enable-background:new 0 0 2119.2 1092.6;" xml:space="preserve">
<style type="text/css">
	.st0{fill:#FFFFFF;}
	.st1{fill:none;}
	.st2{font-family:'MyriadPro-Light';}
	.st3{font-size:100px;}
	.st4{fill:#199FA0;stroke:#FFFFFF;stroke-miterlimit:10;}
	.st5{fill:#320C02;}
	.st6{fill:none;stroke:#FFFFFF;stroke-width:3;stroke-miterlimit:10;}
</style>
<polygon class="st0" points="1557.9,150.5 1760,150.5 1111,978.6 933.7,978.6 "/>
<polygon class="st0" points="1295.4,150.5 1396.5,150.5 823.7,978.6 713.8,978.6 "/>
<rect width="2119.2" height="1092.6"/>
<rect x="283.5" y="341.7" class="st1" width="1535.7" height="344.1"/>
<text transform="matrix(1 0 0 1 351.0082 412.816)"><tspan x="0" y="0" class="st0 st2 st3">The development of Smart TVs had </tspan><tspan x="-60.2" y="120" class="st0 st2 st3">unintended consequences... including </tspan><tspan x="453.2" y="240" class="st0 st2 st3">Smart Pixels.</tspan></text>
<g>
	<rect x="984.2" y="903.8" class="st4" width="73" height="73"/>
	
		<ellipse transform="matrix(3.255683e-02 -0.9995 0.9995 3.255683e-02 39.7541 1904.3114)" class="st5" cx="1003.6" cy="931.6" rx="8.7" ry="6.6"/>
	
		<ellipse transform="matrix(3.255683e-02 -0.9995 0.9995 3.255683e-02 45.9142 1904.4117)" class="st0" cx="1006.7" cy="928.5" rx="3.1" ry="3.1"/>
	
		<ellipse transform="matrix(0.7298 -0.6837 0.6837 0.7298 -368.1939 937.9703)" class="st0" cx="1002.4" cy="934.7" rx="1.4" ry="1.4"/>
	
		<ellipse transform="matrix(3.255683e-02 -0.9995 0.9995 3.255683e-02 72.6472 1938.2933)" class="st5" cx="1037.6" cy="931.6" rx="8.7" ry="6.6"/>
	
		<ellipse transform="matrix(3.255683e-02 -0.9995 0.9995 3.255683e-02 78.8073 1938.3937)" class="st0" cx="1040.7" cy="928.5" rx="3.1" ry="3.1"/>
	
		<ellipse transform="matrix(0.7298 -0.6837 0.6837 0.7298 -358.2613 963.0527)" class="st0" cx="1039.1" cy="934.7" rx="1.4" ry="1.4"/>
	<circle class="st4" cx="1020.7" cy="956.2" r="6.4"/>
	<path class="st4" d="M1045,903.8c2.5-2.6,12.2-16.1,12.2-16.1v16.1H1045z"/>
	<path class="st4" d="M998.6,903.8c-2.9-2.6-14.4-16.1-14.4-16.1v16.1H998.6z"/>
</g>
<line class="st6" x1="232.7" y1="201.6" x2="1891.9" y2="201.6"/>
<line class="st6" x1="232.7" y1="794" x2="1891.9" y2="794"/>
<path class="st0" d="M1195.3,133.1c-4.8-10.6-16.1-11.2-26.3-9.3c-7.2,1.4-14.1,4-21.4,4.7c-5.5,0.5-11-0.1-16.2-1.8
	c2.4,0.5,4.9,0.7,7.3,0.5c3.4-0.2,6.7-1.6,8.9-4.3c3.1-3.6,4-9.7,1.1-13.7c-1.7-2.3-4.5-3.6-7.4-3.6c-0.2,0-0.4,0-0.6,0
	c-3.8,0.3-7.2,3.1-8.2,6.8c-0.6,2-0.4,4.3,1.3,5.7c1,0.8,2.3,1.1,3.4,0.5c1.7-0.9,1.8-3,1.7-4.7c-0.1-1.9-0.4-4.1,1.4-5.3
	c0.4-0.3,0.9-0.5,1.4-0.6c2-0.3,3.7,0.7,4.9,2.2c3.6,4.5,1.5,11.5-3.1,14.4c-9.5,6-21.7-3.1-29.6-8c-9.2-5.7-15.8-11.6-30.1-11.6
	c-2.3,0-4.6,0.2-6.9,0.5c-4.6,0.6-9.1,1.8-13.4,3.4c-6.4,2.3-12.4,5.4-18.4,8.5c-3.4,1.7-6.8,4-10.5,5c-1.9,0.6-3.9,0.8-5.8,0.3
	c-1.1-0.3-2.1-0.9-2.8-1.7c3.9,2.2,8.9-2.8,5-6.7c-0.7-0.7-1.6-1.3-2.6-1.6c-6-2.2-12.7,1.3-14.5,7.3c-1.7,5.7,0.3,12.5,3.8,17.1
	c4.9,6.5,13.1,10.5,21.3,9.8c9.9-0.8,18.1-7.1,26-12.5c7.2-5,16.5-10.1,25.3-8.7c0.1,0,0.1,0,0.2,0.1c2.6,0.4,5.1,1.9,5.6,4.6
	c0,0.1,0,0.2,0,0.3c-0.2-0.2-0.4-0.4-0.7-0.6c-0.3-0.5-0.7-1-1.3-1.5c-2.9-2.2-7.8-0.9-9.9,1.4c-4,4.2-2.8,10.9,1,15.3
	c3.3,3.8,8.6,5.7,13.6,5.7c9-0.1,16.9-6.3,19-15c1.6-6.4-0.3-12.9-4.4-17.6c5.2,2.6,9.7,6.3,13.3,10.8c4.1,5.2,8.3,12.3,6.6,19.2
	c0,0,0,0,0,0c-1.2,5-6.7,10.6-12.1,7.3c-5-3-2.7-9.4,2.5-10c1.2-0.1,2.5,0.1,3.4,0.9c1.8,1.6,2.4,4.3,0.5,6.1
	c-0.8,0.7-2.1,0.8-2.9,0.1c1.6-0.3,2.6-2.1,2.2-3.6c-0.4-1.5-2.1-2.5-3.7-2.2c-1.6,0.3-2.8,1.8-2.9,3.3c-0.1,1.6,0.8,3.2,2.2,3.9
	c1.4,0.8,3.1,0.8,4.6,0.2c1-0.5,1.9-1.3,2.5-2.2c1.4-2.4,0.8-5.6-1-7.6c-3.1-3.3-8.5-3-11.7,0c-3.4,3.3-3.4,9-0.4,12.5
	c3.6,4.2,10.3,4.4,14.5,1.1c7.1-5.6,6.9-16.8,3-24.4c3.2,4.1,7.2,7.6,11.7,10.3c3.4,2,10.6,5.5,13,0.1c1.4-3.1-1.9-6.9-4.9-4.4
	c-2.3,1.9-0.9,4.8,1.4,5.4c-0.6,0.3-1.2,0.5-1.6,0.5c-1.6,0-3.1-0.7-4.5-1.3c-2-1-4-2.1-5.8-3.4c-2.9-2.1-5.5-4.5-7.7-7.3
	c6.1,4,13.7,5.5,21.1,4c12-2.5,28.6-14.6,39.1-2.5C1196.6,136.1,1195.4,133.4,1195.3,133.1z M1104.9,148.5
	c-6.5,2.2-15.1,0.9-19.3-5.2c-2.1-3-2.5-7.3-0.5-10.5c0.6-0.8,1.3-1.5,2.1-2c-0.4,1-0.5,2.2,0,3.3c1.7,4.5,7.9,4.6,10.3,0.5
	c3.7-6.2-3.8-11.4-8.4-13.9c-3.7-1.9-7.7-3.1-11.8-3.6c-8.4-0.9-16.3,1.8-23.1,6.6c-6,4.3-11.9,9.7-19.5,10.6
	c-5.1,0.6-10.1-1.2-13.2-5.4c-0.8-1-0.4-2,0.4-1c6,8.3,18.3,3.4,24.8-1.2c6.4-4.6,12.2-9.3,20-11c7-1.5,14.3-0.8,20.8,2
	c4.7,2,10.3,5.3,12.1,10.4c0.2-0.4,0.3-0.8,0.3-1.1c0-1.5-0.9-3.1-2-4.6c-9.6-12.2-26.7-13.4-40.2-7.6c-4,1.7-7.7,4-11.3,6.4
	c-4.1,2.8-8.3,5.7-13.3,6.6c-5.1,0.8-12.5-1.8-12.4-8c0-2.3,1.4-4.5,3.5-5.4c-1.6,2.5-1.1,5.9,1.4,7.9c3.3,2.7,8,1.9,11.6,0.4
	c11.2-4.7,21.2-11.6,33.1-14.7c15.6-4.1,40.2-0.5,43.6,18.8c0.6,3.2-0.6,8.6-4.5,9.1c-1.5,0.2-3.2-0.6-4-1.9
	c-0.4-0.6-0.7-1.4-0.5-2.2c0.2-0.7,0.8-1.4,1.6-1.4c0.9,0,1.6,0.6,2.3,1.1c0.6,0.4,1.3,0.6,2,0.6c0.7-0.1,1.4-0.5,1.7-1.1
	c0.2-0.6,0.1-1.3-0.2-1.8c-0.3-0.5-0.9-0.9-1.4-1.2c-1.5-0.8-3.4-0.9-5-0.1c-1.6,0.7-2.7,2.3-2.9,4c-0.6,5.3,5.8,6.7,9.3,4.1
	c3.1-2.3,3.5-6.4,2.8-9.9c-0.7-3.1-2.1-6-3.9-8.5C1120.6,126.7,1118.5,143.9,1104.9,148.5z"/>
<path class="st0" d="M835.4,135.3c10.6-12.1,27.1,0,39.1,2.5c7.4,1.5,14.9,0,21.1-4c-2.2,2.7-4.8,5.2-7.7,7.3
	c-1.8,1.3-3.8,2.5-5.8,3.4c-1.4,0.7-2.9,1.3-4.5,1.3c-0.3,0-0.9-0.2-1.6-0.5c2.3-0.6,3.7-3.4,1.4-5.4c-3-2.5-6.3,1.3-4.9,4.4
	c2.4,5.3,9.6,1.8,13-0.1c4.5-2.6,8.5-6.2,11.7-10.3c-3.8,7.6-4.1,18.8,3,24.4c4.3,3.4,10.9,3.2,14.5-1.1c3-3.5,3.1-9.2-0.4-12.5
	c-3.2-3-8.6-3.4-11.7,0c-1.8,2-2.5,5.2-1,7.6c0.6,1,1.5,1.8,2.5,2.2c1.4,0.6,3.2,0.6,4.6-0.2c1.4-0.8,2.3-2.4,2.2-3.9
	c-0.1-1.6-1.3-3-2.9-3.3c-1.6-0.3-3.3,0.7-3.7,2.2c-0.4,1.5,0.7,3.3,2.2,3.6c-0.8,0.7-2.1,0.6-2.9-0.1c-1.9-1.8-1.3-4.5,0.5-6.1
	c0.9-0.8,2.2-1,3.4-0.9c5.1,0.5,7.5,7,2.5,10c-5.5,3.3-10.9-2.4-12.1-7.3c0,0,0,0,0,0c-1.7-7,2.5-14,6.5-19.2
	c3.6-4.6,8.1-8.3,13.3-10.8c-4.1,4.8-6,11.2-4.4,17.6c2.2,8.7,10,14.9,19,15c4.9,0.1,10.3-1.9,13.6-5.7c3.8-4.4,5-11,1-15.3
	c-2.1-2.3-7-3.6-9.9-1.4c-0.6,0.4-1,0.9-1.3,1.5c-0.2,0.2-0.5,0.4-0.7,0.6c0-0.1,0-0.2,0-0.3c0.6-2.8,3.1-4.2,5.6-4.6
	c0.1,0,0.1,0,0.2-0.1c8.8-1.3,18,3.8,25.3,8.7c7.9,5.4,16.1,11.7,26,12.5c8.2,0.7,16.4-3.3,21.3-9.8c3.5-4.6,5.5-11.4,3.8-17.1
	c-1.8-6-8.5-9.5-14.5-7.3c-1,0.4-1.9,0.9-2.6,1.6c-3.9,4,1.1,8.9,5,6.7c-0.8,0.8-1.7,1.4-2.8,1.7c-1.9,0.5-4,0.3-5.8-0.3
	c-3.7-1.1-7.1-3.3-10.5-5c-6-3.1-12-6.2-18.4-8.5c-4.3-1.6-8.8-2.8-13.4-3.4c-2.3-0.3-4.6-0.5-6.9-0.5c-14.4,0-21,5.9-30.1,11.6
	c-7.9,4.9-20.1,14-29.6,8c-4.6-2.9-6.6-9.9-3.1-14.4c1.2-1.5,2.9-2.5,4.9-2.2c0.5,0.1,1,0.3,1.4,0.6c1.7,1.3,1.5,3.4,1.4,5.3
	c-0.1,1.8,0,3.8,1.7,4.7c1.1,0.6,2.5,0.3,3.4-0.5c1.7-1.4,1.8-3.7,1.3-5.7c-1-3.6-4.4-6.5-8.2-6.8c-0.2,0-0.4,0-0.6,0
	c-2.8,0-5.7,1.3-7.4,3.6c-2.9,4-2,10.1,1.1,13.7c2.3,2.7,5.5,4,8.9,4.3c2.4,0.2,4.9,0,7.3-0.5c-5.2,1.7-10.7,2.3-16.2,1.8
	c-7.3-0.7-14.2-3.4-21.4-4.7c-10.2-1.9-21.4-1.3-26.3,9.3C835.8,133.4,834.6,136.1,835.4,135.3z M920.1,117.7
	c-1.9,2.5-3.3,5.4-3.9,8.5c-0.7,3.5-0.4,7.6,2.8,9.9c3.5,2.6,9.9,1.2,9.3-4.1c-0.2-1.7-1.4-3.3-2.9-4c-1.6-0.7-3.4-0.7-5,0.1
	c-0.6,0.3-1.1,0.7-1.4,1.2c-0.3,0.5-0.4,1.2-0.2,1.8c0.3,0.7,1,1.1,1.7,1.1c0.7,0.1,1.4-0.2,2-0.6c0.7-0.5,1.4-1.2,2.3-1.1
	c0.8,0,1.4,0.7,1.6,1.4c0.2,0.7-0.1,1.5-0.5,2.2c-0.8,1.3-2.5,2-4,1.9c-3.9-0.5-5.1-5.9-4.5-9.1c3.4-19.3,28-22.9,43.6-18.8
	c11.9,3.1,21.9,10,33.1,14.7c3.6,1.5,8.3,2.4,11.6-0.4c2.4-2,3-5.3,1.4-7.9c2,0.9,3.4,3.1,3.5,5.4c0.1,6.3-7.3,8.8-12.4,8
	c-5-0.8-9.2-3.8-13.3-6.6c-3.6-2.4-7.3-4.7-11.3-6.4c-13.5-5.8-30.6-4.6-40.2,7.6c-1.2,1.5-2,3.1-2,4.6c0,0.3,0.1,0.7,0.3,1.1
	c1.8-5,7.4-8.3,12.1-10.4c6.6-2.8,13.9-3.5,20.8-2c7.9,1.7,13.7,6.4,20,11c6.5,4.7,18.9,9.5,24.8,1.2c0.7-1,1.1,0,0.4,1
	c-3,4.2-8.1,6-13.2,5.4c-7.6-0.9-13.5-6.4-19.5-10.6c-6.8-4.8-14.7-7.5-23.1-6.6c-4.1,0.4-8.1,1.6-11.8,3.6
	c-4.7,2.5-12.1,7.6-8.4,13.9c2.4,4.1,8.6,4,10.3-0.5c0.4-1.1,0.4-2.3,0-3.3c0.8,0.5,1.5,1.2,2.1,2c2.1,3.2,1.6,7.4-0.5,10.5
	c-4.1,6-12.7,7.4-19.3,5.2C912.8,143.9,910.6,126.7,920.1,117.7z"/>
</svg>
